<?xml version="1.0" encoding="UTF-8"?>
<svg xmlns="http://www.w3.org/2000/svg" xmlns:xlink="http://www.w3.org/1999/xlink" width="16px" height="16px" viewBox="0 0 16 16" version="1.1">
<g id="surface1">
<path style=" stroke:none;fill-rule:nonzero;fill:rgb(0%,0%,0%);fill-opacity:1;" d="M 10.300781 8 L 9.625 8.738281 C 9.003906 9.320312 8.683594 10.152344 8.75 11 L 7.25 11 L 7.25 10.601562 C 7.242188 9.761719 7.558594 8.953125 8.128906 8.339844 L 9.058594 7.328125 C 9.34375 7.023438 9.503906 6.621094 9.496094 6.199219 C 9.523438 5.34375 8.855469 4.628906 8 4.601562 C 7.589844 4.617188 7.199219 4.792969 6.917969 5.089844 C 6.636719 5.390625 6.488281 5.789062 6.503906 6.199219 L 5 6.199219 C 4.945312 4.488281 6.289062 3.058594 8 3 C 9.710938 3.058594 11.054688 4.488281 11 6.199219 C 11 6.867188 10.75 7.507812 10.300781 8 M 8 0 C 3.582031 0 0 3.582031 0 8 C 0 12.417969 3.582031 16 8 16 C 12.417969 16 16 12.417969 16 8 C 16 3.582031 12.417969 0 8 0 Z M 9 13 C 9 13.550781 8.550781 14 8 14 C 7.449219 14 7 13.550781 7 13 C 7 12.449219 7.449219 12 8 12 C 8.550781 12 9 12.449219 9 13 Z M 9 13 "/>
</g>
</svg>
