<?xml version="1.0" encoding="UTF-8"?>
<svg xmlns="http://www.w3.org/2000/svg" xmlns:xlink="http://www.w3.org/1999/xlink" width="16px" height="16px" viewBox="0 0 16 16" version="1.1">
<g id="surface1">
<path style=" stroke:none;fill-rule:nonzero;fill:rgb(0%,0%,0%);fill-opacity:1;" d="M 8 4 C 9.378906 4 10.5 5.121094 10.5 6.5 C 10.5 7.878906 9.378906 9 8 9 C 6.621094 9 5.5 7.878906 5.5 6.5 C 5.5 5.835938 5.761719 5.199219 6.230469 4.730469 C 6.699219 4.261719 7.335938 4 8 4 M 3.175781 6 C 3.5625 5.996094 3.945312 6.09375 4.285156 6.28125 C 4.1875 7.238281 4.480469 8.191406 5.105469 8.921875 C 4.703125 9.601562 3.964844 10.011719 3.175781 10 C 2.023438 10.046875 1.050781 9.152344 1 8 C 1.054688 6.847656 2.023438 5.957031 3.175781 6 M 12.878906 6 C 14.015625 5.96875 14.964844 6.863281 15 8 C 14.964844 9.136719 14.015625 10.03125 12.878906 10 C 12.105469 10.007812 11.382812 9.597656 11 8.921875 C 11.609375 8.183594 11.898438 7.234375 11.800781 6.28125 C 12.128906 6.09375 12.5 5.996094 12.878906 6 M 4 12.730469 C 4 11.21875 5.789062 10 8 10 C 10.210938 10 12 11.21875 12 12.730469 L 12 14 L 4 14 L 4 12.730469 M 0 14 L 0 12.976562 C 0 12.03125 1.277344 11.230469 3 11 C 2.578125 11.507812 2.351562 12.148438 2.359375 12.808594 L 2.359375 14 L 0 14 M 16 14 L 13.640625 14 L 13.640625 12.808594 C 13.648438 12.148438 13.421875 11.507812 13 11 C 14.722656 11.230469 16 12.03125 16 12.976562 Z M 16 14 "/>
</g>
</svg>
