<?xml version="1.0" encoding="UTF-8"?>
<svg xmlns="http://www.w3.org/2000/svg" xmlns:xlink="http://www.w3.org/1999/xlink" width="240px" height="240px" viewBox="0 0 15 15" version="1.1">
<defs>
<clipPath id="clip1">
  <path d="M 1 5 L 9 5 L 9 11 L 1 11 Z M 1 5 "/>
</clipPath>
<clipPath id="clip2">
  <path d="M 2.25 13.125 L 4.59375 13.125 L 4.84375 8 L 4.84375 7.1875 L 6.5 8.25 C 6.5625 8.28125 6.84375 8.28125 7 8.1875 L 8.5 6.9375 L 7.71875 5.90625 L 6.59375 6.75 C 6.59375 6.75 4.90625 5.4375 4.59375 5.25 C 4.59375 5.25 4.0625 5 3.4375 5 C 1.875 5 1.25 5.625 1.25 6.875 L 1.25 9.375 L 2.0625 9.9375 Z M 2.25 13.125 "/>
</clipPath>
<clipPath id="clip3">
  <path d="M 1 10 L 9 10 L 9 14 L 1 14 Z M 1 10 "/>
</clipPath>
<clipPath id="clip4">
  <path d="M 2.25 13.125 L 4.59375 13.125 L 4.84375 8 L 4.84375 7.1875 L 6.5 8.25 C 6.5625 8.28125 6.84375 8.28125 7 8.1875 L 8.5 6.9375 L 7.71875 5.90625 L 6.59375 6.75 C 6.59375 6.75 4.90625 5.4375 4.59375 5.25 C 4.59375 5.25 4.0625 5 3.4375 5 C 1.875 5 1.25 5.625 1.25 6.875 L 1.25 9.375 L 2.0625 9.9375 Z M 2.25 13.125 "/>
</clipPath>
</defs>
<g id="surface1">
<path style=" stroke:none;fill-rule:nonzero;fill:rgb(0%,58.823529%,53.333333%);fill-opacity:1;" d="M 1.875 1.875 L 13.125 1.875 L 13.125 8.75 L 1.875 8.75 Z M 1.875 1.875 "/>
<path style=" stroke:none;fill-rule:nonzero;fill:rgb(0%,47.45098%,41.960784%);fill-opacity:1;" d="M 12.1875 3.125 L 12.1875 8.75 L 2.8125 8.75 L 2.8125 3.125 L 12.5 3.125 M 13.125 2.5 L 1.875 2.5 L 1.875 8.75 L 13.125 8.75 Z M 13.125 2.5 "/>
<path style=" stroke:none;fill-rule:nonzero;fill:rgb(43.529412%,26.27451%,16.470588%);fill-opacity:1;" d="M 12.5 2.5 L 12.5 8.4375 L 2.5 8.4375 L 2.5 2.5 L 12.5 2.5 M 13.125 1.875 L 1.875 1.875 L 1.875 8.75 L 13.125 8.75 Z M 13.125 1.875 "/>
<path style=" stroke:none;fill-rule:nonzero;fill:rgb(35.294118%,21.960784%,15.686275%);fill-opacity:1;" d="M 13.75 9.6875 L 13.75 9.0625 C 13.75 8.71875 13.46875 8.4375 13.125 8.4375 L 2.1875 8.4375 C 1.84375 8.4375 1.5625 8.71875 1.5625 9.0625 L 1.5625 9.6875 Z M 13.75 9.6875 "/>
<path style=" stroke:none;fill-rule:nonzero;fill:rgb(100%,100%,100%);fill-opacity:1;" d="M 10.9375 8.4375 L 8.75 8.4375 L 8.75 7.8125 L 10.9375 7.8125 L 11.25 8.125 Z M 10.9375 8.4375 "/>
<path style=" stroke:none;fill-rule:nonzero;fill:rgb(89.019608%,56.862745%,45.490196%);fill-opacity:1;" d="M 3.125 4.6875 C 2.4375 4.6875 1.875 4.125 1.875 3.4375 C 1.875 2.75 2.4375 2.1875 3.125 2.1875 C 3.8125 2.1875 4.375 2.75 4.375 3.4375 C 4.375 4.125 3.8125 4.6875 3.125 4.6875 M 2.1875 10.625 L 1.25 10 L 1.25 8.75 L 2.1875 8.75 Z M 8.75 5.3125 L 8.8125 6.4375 L 7.8125 7.1875 L 7.25 6.4375 Z M 8.75 5.3125 "/>
<g clip-path="url(#clip1)" clip-rule="nonzero">
<g clip-path="url(#clip2)" clip-rule="nonzero">
<path style=" stroke:none;fill-rule:nonzero;fill:rgb(96.862745%,88.235294%,92.156863%);fill-opacity:1;" d="M -0.5625 4.28125 L 9.3125 4.28125 L 9.3125 10.09375 L -0.5625 10.09375 Z M -0.5625 4.28125 "/>
</g>
</g>
<g clip-path="url(#clip3)" clip-rule="nonzero">
<g clip-path="url(#clip4)" clip-rule="nonzero">
<path style=" stroke:none;fill-rule:nonzero;fill:rgb(21.960784%,21.960784%,21.960784%);fill-opacity:1;" d="M -0.5625 10.09375 L 9.53125 10.09375 L 9.53125 13.5 L -0.5625 13.5 Z M -0.5625 10.09375 "/>
</g>
</g>
<path style=" stroke:none;fill-rule:nonzero;fill:rgb(96.078431%,72.54902%,59.215686%);fill-opacity:1;" d="M 4.0625 10.78125 C 4.0625 11.21875 3.71875 11.5625 3.28125 11.5625 C 2.84375 11.5625 2.5 11.21875 2.5 10.78125 C 2.5 10.34375 2.84375 10 3.28125 10 C 3.71875 10 4.0625 10.34375 4.0625 10.78125 M 6.875 10.78125 C 6.875 11.21875 6.53125 11.5625 6.09375 11.5625 C 5.65625 11.5625 5.3125 11.21875 5.3125 10.78125 C 5.3125 10.34375 5.65625 10 6.09375 10 C 6.53125 10 6.875 10.34375 6.875 10.78125 M 9.6875 10.78125 C 9.6875 11.21875 9.34375 11.5625 8.90625 11.5625 C 8.46875 11.5625 8.125 11.21875 8.125 10.78125 C 8.125 10.34375 8.46875 10 8.90625 10 C 9.34375 10 9.6875 10.34375 9.6875 10.78125 M 12.5 10.78125 C 12.5 11.21875 12.15625 11.5625 11.71875 11.5625 C 11.28125 11.5625 10.9375 11.21875 10.9375 10.78125 C 10.9375 10.34375 11.28125 10 11.71875 10 C 12.15625 10 12.5 10.34375 12.5 10.78125 "/>
<path style=" stroke:none;fill-rule:nonzero;fill:rgb(12.156863%,36.862745%,65.882353%);fill-opacity:1;" d="M 4.6875 12.8125 C 4.6875 12.8125 4.3125 11.875 3.28125 11.875 C 2.25 11.875 1.875 12.8125 1.875 12.8125 L 1.875 13.125 L 4.6875 13.125 Z M 4.6875 12.8125 "/>
<path style=" stroke:none;fill-rule:nonzero;fill:rgb(92.156863%,25.098039%,23.137255%);fill-opacity:1;" d="M 7.5 12.8125 C 7.5 12.8125 7.125 11.875 6.09375 11.875 C 5.0625 11.875 4.6875 12.8125 4.6875 12.8125 L 4.6875 13.125 L 7.5 13.125 Z M 7.5 12.8125 "/>
<path style=" stroke:none;fill-rule:nonzero;fill:rgb(98.431373%,71.764706%,20.784314%);fill-opacity:1;" d="M 10.3125 12.8125 C 10.3125 12.8125 9.9375 11.875 8.90625 11.875 C 7.875 11.875 7.5 12.8125 7.5 12.8125 L 7.5 13.125 L 10.3125 13.125 Z M 10.3125 12.8125 "/>
<path style=" stroke:none;fill-rule:nonzero;fill:rgb(42.352941%,16.470588%,41.568627%);fill-opacity:1;" d="M 13.125 12.8125 C 13.125 12.8125 12.75 11.875 11.71875 11.875 C 10.6875 11.875 10.3125 12.8125 10.3125 12.8125 L 10.3125 13.125 L 13.125 13.125 Z M 13.125 12.8125 "/>
<path style=" stroke:none;fill-rule:nonzero;fill:rgb(92.156863%,61.568627%,44.313725%);fill-opacity:1;" d="M 4.0625 10.78125 C 4.0625 11.210938 3.710938 11.5625 3.28125 11.5625 C 2.851562 11.5625 2.5 11.210938 2.5 10.78125 C 2.5 10.351562 2.851562 10 3.28125 10 C 3.710938 10 4.0625 10.351562 4.0625 10.78125 Z M 4.0625 10.78125 "/>
<path style=" stroke:none;fill-rule:nonzero;fill:rgb(96.078431%,72.941176%,50.196078%);fill-opacity:1;" d="M 6.875 10.78125 C 6.875 11.210938 6.523438 11.5625 6.09375 11.5625 C 5.664062 11.5625 5.3125 11.210938 5.3125 10.78125 C 5.3125 10.351562 5.664062 10 6.09375 10 C 6.523438 10 6.875 10.351562 6.875 10.78125 Z M 6.875 10.78125 "/>
<path style=" stroke:none;fill-rule:nonzero;fill:rgb(49.019608%,26.666667%,10.980392%);fill-opacity:1;" d="M 9.6875 10.78125 C 9.6875 11.210938 9.335938 11.5625 8.90625 11.5625 C 8.476562 11.5625 8.125 11.210938 8.125 10.78125 C 8.125 10.351562 8.476562 10 8.90625 10 C 9.335938 10 9.6875 10.351562 9.6875 10.78125 Z M 9.6875 10.78125 "/>
<path style=" stroke:none;fill-rule:nonzero;fill:rgb(93.72549%,59.215686%,46.666667%);fill-opacity:1;" d="M 12.5 10.78125 C 12.5 11.210938 12.148438 11.5625 11.71875 11.5625 C 11.289062 11.5625 10.9375 11.210938 10.9375 10.78125 C 10.9375 10.351562 11.289062 10 11.71875 10 C 12.148438 10 12.5 10.351562 12.5 10.78125 Z M 12.5 10.78125 "/>
</g>
</svg>
