<?xml version="1.0" encoding="UTF-8"?>
<svg xmlns="http://www.w3.org/2000/svg" xmlns:xlink="http://www.w3.org/1999/xlink" width="16px" height="16px" viewBox="0 0 16 16" version="1.1">
<g id="surface1">
<path style=" stroke:none;fill-rule:nonzero;fill:rgb(0%,0%,0%);fill-opacity:1;" d="M 7 13 L 4 13 L 4 3 L 9 3 L 9 6 L 12 6 L 12 8 L 13 7 L 13 5 L 9 2 L 4 2 C 3.261719 2 3 2.261719 3 3 L 3 13 C 3 13.738281 3.261719 14 4 14 L 7 14 L 7 13 M 13.464844 8.667969 C 13.566406 8.683594 13.660156 8.726562 13.734375 8.792969 L 14.601562 9.617188 C 14.734375 9.761719 14.734375 9.980469 14.601562 10.121094 L 13.933594 10.757812 L 12.535156 9.425781 L 13.199219 8.792969 C 13.265625 8.714844 13.363281 8.667969 13.464844 8.667969 M 13.464844 11.136719 L 9.398438 15 L 8 15 L 8 13.671875 L 12.066406 9.808594 Z M 11 9 L 5 9 L 5 8 L 11 8 Z M 9 11 L 5 11 L 5 10 L 9 10 Z M 9 11 "/>
</g>
</svg>
