<?xml version="1.0" encoding="utf-8"?>
<!-- Generator: Adobe Illustrator 25.0.1, SVG Export Plug-In . SVG Version: 6.00 Build 0)  -->
<svg version="1.1" id="Camada_1" xmlns="http://www.w3.org/2000/svg" xmlns:xlink="http://www.w3.org/1999/xlink" x="0px" y="0px"
	 width="168px" height="68px" viewBox="0 0 168 68" style="enable-background:new 0 0 168 68;" xml:space="preserve">
<style type="text/css">
	.st0{fill:#212121;}
	.st1{fill:#43A047;}
</style>
<path class="st0" d="M131,50V29h9v19.83c-0.18,0.36-0.3,0.78-0.45,1.17H131"/>
<path class="st0" d="M156.5,38c0.51,0,0.99,0,1.5,0.09V29h-9v10.65C151.28,38.6,153.83,38,156.5,38"/>
<polyline class="st0" points="122,50 122,29 113,29 113,50 122,50 "/>
<polyline class="st0" points="164,17 135.5,2 107,17 107,23 164,23 164,17 "/>
<path class="st0" d="M107,56v9h33.93c-1.53-2.64-2.43-5.73-2.43-9H107"/>
<polygon class="st1" points="163.52,47 152.75,57.77 147.98,53 144.5,56.48 152.75,65.48 167,51.23 "/>
<g>
	<path class="st0" d="M6.833,29.143l4.398-11.453h1.633l4.688,11.453h-1.727l-1.336-3.469H9.701l-1.258,3.469H6.833z M10.138,24.44
		h3.883l-1.195-3.172c-0.365-0.963-0.636-1.755-0.812-2.375c-0.146,0.734-0.352,1.464-0.617,2.188L10.138,24.44z"/>
	<path class="st0" d="M20.599,29.143l-3.156-8.297h1.484l1.781,4.969c0.192,0.537,0.37,1.094,0.531,1.672
		c0.125-0.438,0.299-0.963,0.523-1.578l1.844-5.062h1.445l-3.141,8.297H20.599z"/>
	<path class="st0" d="M31.708,28.12c-0.521,0.443-1.022,0.755-1.504,0.938c-0.482,0.182-0.999,0.273-1.551,0.273
		c-0.912,0-1.612-0.223-2.102-0.668c-0.49-0.445-0.734-1.014-0.734-1.707c0-0.406,0.092-0.777,0.277-1.113
		c0.185-0.336,0.427-0.605,0.727-0.809c0.299-0.203,0.637-0.356,1.012-0.461c0.276-0.073,0.692-0.143,1.25-0.211
		c1.135-0.135,1.971-0.297,2.508-0.484c0.005-0.192,0.008-0.315,0.008-0.367c0-0.573-0.133-0.977-0.398-1.211
		c-0.359-0.317-0.894-0.477-1.602-0.477c-0.662,0-1.15,0.116-1.465,0.348c-0.315,0.232-0.548,0.642-0.699,1.23l-1.375-0.188
		c0.125-0.588,0.331-1.063,0.617-1.426c0.286-0.362,0.7-0.641,1.242-0.836c0.542-0.195,1.169-0.293,1.883-0.293
		c0.708,0,1.284,0.083,1.727,0.25c0.442,0.167,0.768,0.376,0.977,0.629c0.208,0.253,0.354,0.572,0.438,0.957
		c0.047,0.24,0.07,0.672,0.07,1.297v1.875c0,1.308,0.03,2.134,0.09,2.48c0.06,0.347,0.178,0.679,0.355,0.996H31.99
		C31.844,28.852,31.75,28.51,31.708,28.12z M31.591,24.979c-0.511,0.208-1.276,0.386-2.297,0.531
		c-0.578,0.083-0.987,0.177-1.227,0.281c-0.24,0.104-0.425,0.257-0.555,0.457c-0.13,0.201-0.195,0.423-0.195,0.668
		c0,0.375,0.142,0.688,0.426,0.938c0.284,0.25,0.699,0.375,1.246,0.375c0.542,0,1.023-0.118,1.445-0.355
		c0.422-0.237,0.731-0.561,0.93-0.973c0.151-0.317,0.227-0.786,0.227-1.406V24.979z"/>
	<path class="st0" d="M35.162,29.143V17.69h1.406v11.453H35.162z"/>
	<path class="st0" d="M38.755,19.307V17.69h1.406v1.617H38.755z M38.755,29.143v-8.297h1.406v8.297H38.755z"/>
	<path class="st0" d="M47.716,28.12c-0.521,0.443-1.022,0.755-1.504,0.938c-0.482,0.182-0.999,0.273-1.551,0.273
		c-0.912,0-1.612-0.223-2.102-0.668c-0.49-0.445-0.734-1.014-0.734-1.707c0-0.406,0.092-0.777,0.277-1.113
		c0.185-0.336,0.427-0.605,0.727-0.809c0.299-0.203,0.637-0.356,1.012-0.461c0.276-0.073,0.692-0.143,1.25-0.211
		c1.135-0.135,1.971-0.297,2.508-0.484c0.005-0.192,0.008-0.315,0.008-0.367c0-0.573-0.133-0.977-0.398-1.211
		c-0.359-0.317-0.894-0.477-1.602-0.477c-0.662,0-1.15,0.116-1.465,0.348c-0.315,0.232-0.548,0.642-0.699,1.23l-1.375-0.188
		c0.125-0.588,0.331-1.063,0.617-1.426c0.286-0.362,0.7-0.641,1.242-0.836c0.542-0.195,1.169-0.293,1.883-0.293
		c0.708,0,1.284,0.083,1.727,0.25c0.442,0.167,0.768,0.376,0.977,0.629c0.208,0.253,0.354,0.572,0.438,0.957
		c0.047,0.24,0.07,0.672,0.07,1.297v1.875c0,1.308,0.03,2.134,0.09,2.48c0.06,0.347,0.178,0.679,0.355,0.996h-1.469
		C47.852,28.852,47.758,28.51,47.716,28.12z M47.599,24.979c-0.511,0.208-1.276,0.386-2.297,0.531
		c-0.578,0.083-0.987,0.177-1.227,0.281c-0.24,0.104-0.425,0.257-0.555,0.457c-0.13,0.201-0.195,0.423-0.195,0.668
		c0,0.375,0.142,0.688,0.426,0.938c0.284,0.25,0.699,0.375,1.246,0.375c0.542,0,1.023-0.118,1.445-0.355
		c0.422-0.237,0.731-0.561,0.93-0.973c0.151-0.317,0.227-0.786,0.227-1.406V24.979z"/>
	<path class="st0" d="M56.615,26.104l1.383,0.18c-0.152,0.953-0.539,1.699-1.16,2.238c-0.623,0.539-1.387,0.809-2.293,0.809
		c-1.136,0-2.049-0.371-2.739-1.113c-0.69-0.742-1.035-1.806-1.035-3.191c0-0.896,0.148-1.68,0.445-2.352s0.749-1.176,1.355-1.512
		c0.606-0.336,1.267-0.504,1.981-0.504c0.9,0,1.637,0.228,2.211,0.684c0.572,0.456,0.939,1.103,1.102,1.941l-1.367,0.211
		c-0.131-0.557-0.361-0.977-0.691-1.258c-0.332-0.281-0.73-0.422-1.199-0.422c-0.709,0-1.285,0.254-1.727,0.762
		c-0.443,0.508-0.664,1.312-0.664,2.41c0,1.115,0.213,1.925,0.641,2.43c0.427,0.505,0.984,0.758,1.672,0.758
		c0.551,0,1.012-0.169,1.383-0.508C56.281,27.328,56.516,26.807,56.615,26.104z M53.357,30.19l0.406-1.383h1.047l-0.258,0.836
		c0.441,0.052,0.775,0.188,1,0.41c0.223,0.221,0.336,0.467,0.336,0.738c0,0.391-0.188,0.735-0.562,1.035
		c-0.375,0.299-0.941,0.449-1.696,0.449c-0.427,0-0.802-0.031-1.125-0.094l0.086-0.914c0.333,0.021,0.578,0.031,0.734,0.031
		c0.489,0,0.833-0.068,1.032-0.203c0.15-0.104,0.227-0.232,0.227-0.383c0-0.094-0.031-0.177-0.09-0.25
		c-0.061-0.073-0.172-0.136-0.332-0.188C54,30.224,53.732,30.195,53.357,30.19z"/>
	<path class="st0" d="M64.615,28.12c-0.521,0.443-1.022,0.755-1.504,0.938s-0.999,0.273-1.551,0.273
		c-0.911,0-1.612-0.223-2.102-0.668s-0.734-1.014-0.734-1.707c0-0.406,0.093-0.777,0.277-1.113s0.427-0.605,0.727-0.809
		s0.637-0.356,1.012-0.461c0.276-0.073,0.692-0.143,1.25-0.211c1.136-0.135,1.972-0.297,2.508-0.484
		c0.005-0.192,0.008-0.315,0.008-0.367c0-0.573-0.133-0.977-0.398-1.211c-0.359-0.317-0.894-0.477-1.602-0.477
		c-0.661,0-1.149,0.116-1.465,0.348c-0.315,0.232-0.548,0.642-0.699,1.23l-1.375-0.188c0.125-0.588,0.331-1.063,0.617-1.426
		c0.286-0.362,0.7-0.641,1.242-0.836s1.169-0.293,1.883-0.293c0.708,0,1.284,0.083,1.727,0.25c0.442,0.167,0.769,0.376,0.977,0.629
		c0.208,0.253,0.354,0.572,0.438,0.957c0.047,0.24,0.07,0.672,0.07,1.297v1.875c0,1.308,0.03,2.134,0.09,2.48
		c0.06,0.347,0.179,0.679,0.355,0.996h-1.469C64.751,28.852,64.657,28.51,64.615,28.12z M59.936,19.62
		c-0.005-0.542,0.144-0.974,0.445-1.297c0.297-0.323,0.677-0.484,1.141-0.484c0.323,0,0.763,0.141,1.32,0.422
		c0.308,0.156,0.552,0.234,0.734,0.234c0.167,0,0.294-0.045,0.383-0.137c0.089-0.091,0.151-0.272,0.188-0.543h1.016
		c-0.016,0.594-0.165,1.039-0.449,1.336s-0.645,0.445-1.082,0.445c-0.328,0-0.761-0.146-1.297-0.438
		c-0.349-0.188-0.604-0.281-0.766-0.281c-0.177,0-0.32,0.062-0.43,0.188c-0.114,0.125-0.169,0.31-0.164,0.555H59.936z
		 M64.498,24.979c-0.511,0.208-1.276,0.386-2.297,0.531c-0.578,0.083-0.987,0.177-1.227,0.281c-0.239,0.104-0.425,0.257-0.555,0.457
		c-0.13,0.201-0.195,0.423-0.195,0.668c0,0.375,0.142,0.688,0.426,0.938s0.699,0.375,1.246,0.375c0.542,0,1.023-0.118,1.445-0.355
		c0.422-0.237,0.731-0.561,0.93-0.973c0.151-0.317,0.227-0.786,0.227-1.406V24.979z"/>
	<path class="st0" d="M67.576,24.995c0-1.536,0.427-2.674,1.281-3.414c0.714-0.614,1.583-0.922,2.609-0.922
		c1.141,0,2.073,0.374,2.797,1.121c0.724,0.748,1.086,1.78,1.086,3.098c0,1.068-0.16,1.908-0.48,2.52
		c-0.32,0.612-0.786,1.087-1.398,1.426s-1.28,0.508-2.004,0.508c-1.161,0-2.101-0.372-2.816-1.117
		C67.935,27.469,67.576,26.396,67.576,24.995z M69.021,24.995c0,1.062,0.231,1.858,0.695,2.387c0.464,0.529,1.047,0.793,1.75,0.793
		c0.698,0,1.278-0.266,1.742-0.797s0.695-1.341,0.695-2.43c0-1.026-0.233-1.803-0.699-2.332c-0.466-0.528-1.046-0.793-1.738-0.793
		c-0.703,0-1.286,0.263-1.75,0.789C69.253,23.138,69.021,23.932,69.021,24.995z"/>
</g>
<g>
	<path class="st0" d="M8.778,45.714V34.261h1.516v11.453H8.778z"/>
	<path class="st0" d="M12.786,45.714v-8.297h1.266v1.18c0.609-0.911,1.489-1.367,2.641-1.367c0.5,0,0.959,0.09,1.379,0.27
		c0.419,0.18,0.733,0.415,0.941,0.707c0.208,0.292,0.354,0.638,0.438,1.039c0.052,0.261,0.078,0.716,0.078,1.367v5.102h-1.406
		v-5.047c0-0.573-0.055-1.001-0.164-1.285s-0.304-0.511-0.582-0.68c-0.279-0.169-0.605-0.254-0.98-0.254
		c-0.599,0-1.116,0.19-1.551,0.57c-0.435,0.38-0.652,1.102-0.652,2.164v4.531H12.786z"/>
	<path class="st0" d="M21.122,43.237l1.391-0.219c0.078,0.558,0.295,0.984,0.652,1.281c0.356,0.297,0.855,0.445,1.496,0.445
		c0.646,0,1.125-0.132,1.438-0.395s0.469-0.571,0.469-0.926c0-0.317-0.138-0.567-0.414-0.75c-0.193-0.125-0.672-0.284-1.438-0.477
		c-1.031-0.261-1.746-0.485-2.145-0.676s-0.701-0.453-0.906-0.789c-0.206-0.336-0.309-0.707-0.309-1.113
		c0-0.37,0.084-0.712,0.254-1.027c0.169-0.315,0.399-0.577,0.691-0.785c0.219-0.161,0.517-0.298,0.895-0.41
		c0.377-0.112,0.782-0.168,1.215-0.168c0.651,0,1.223,0.094,1.715,0.281s0.855,0.441,1.09,0.762s0.396,0.749,0.484,1.285
		l-1.375,0.188c-0.062-0.427-0.244-0.761-0.543-1c-0.3-0.239-0.723-0.359-1.27-0.359c-0.646,0-1.107,0.106-1.383,0.32
		c-0.276,0.214-0.414,0.464-0.414,0.75c0,0.183,0.057,0.347,0.172,0.492c0.114,0.151,0.294,0.276,0.539,0.375
		c0.141,0.052,0.555,0.172,1.242,0.359c0.995,0.266,1.688,0.483,2.082,0.652c0.393,0.169,0.702,0.415,0.926,0.738
		c0.224,0.323,0.336,0.724,0.336,1.203c0,0.469-0.137,0.91-0.41,1.324s-0.668,0.734-1.184,0.961s-1.099,0.34-1.75,0.34
		c-1.078,0-1.9-0.224-2.465-0.672C21.638,44.781,21.278,44.117,21.122,43.237z"/>
	<path class="st0" d="M32.754,44.456l0.203,1.242c-0.396,0.083-0.75,0.125-1.062,0.125c-0.511,0-0.906-0.081-1.188-0.242
		s-0.479-0.374-0.594-0.637c-0.115-0.263-0.172-0.816-0.172-1.66v-4.773h-1.031v-1.094h1.031v-2.055l1.398-0.844v2.898h1.414v1.094
		H31.34v4.852c0,0.401,0.024,0.659,0.074,0.773c0.049,0.114,0.13,0.206,0.242,0.273c0.112,0.067,0.272,0.102,0.48,0.102
		C32.293,44.511,32.499,44.492,32.754,44.456z"/>
	<path class="st0" d="M34.137,35.878v-1.617h1.406v1.617H34.137z M34.137,45.714v-8.297h1.406v8.297H34.137z"/>
	<path class="st0" d="M40.754,44.456l0.203,1.242c-0.396,0.083-0.75,0.125-1.062,0.125c-0.511,0-0.906-0.081-1.188-0.242
		s-0.479-0.374-0.594-0.637s-0.172-0.816-0.172-1.66v-4.773H36.91v-1.094h1.031v-2.055l1.398-0.844v2.898h1.414v1.094H39.34v4.852
		c0,0.401,0.024,0.659,0.074,0.773s0.13,0.206,0.242,0.273s0.272,0.102,0.48,0.102C40.293,44.511,40.499,44.492,40.754,44.456z"/>
	<path class="st0" d="M47.566,45.714v-1.219c-0.646,0.938-1.523,1.406-2.633,1.406c-0.489,0-0.946-0.094-1.371-0.281
		s-0.739-0.423-0.945-0.707s-0.351-0.632-0.434-1.043c-0.058-0.276-0.086-0.714-0.086-1.312v-5.141h1.406v4.602
		c0,0.734,0.028,1.229,0.086,1.484c0.089,0.37,0.276,0.66,0.562,0.871s0.641,0.316,1.062,0.316s0.817-0.108,1.188-0.324
		s0.632-0.511,0.785-0.883s0.23-0.913,0.23-1.621v-4.445h1.406v8.297H47.566z"/>
	<path class="st0" d="M56.441,42.675l1.383,0.18c-0.151,0.953-0.538,1.699-1.16,2.238s-1.387,0.809-2.293,0.809
		c-1.136,0-2.048-0.371-2.738-1.113s-1.035-1.806-1.035-3.191c0-0.896,0.148-1.68,0.445-2.352s0.749-1.176,1.355-1.512
		s1.267-0.504,1.98-0.504c0.901,0,1.638,0.228,2.211,0.684s0.94,1.103,1.102,1.941l-1.367,0.211c-0.13-0.558-0.36-0.977-0.691-1.258
		s-0.73-0.422-1.199-0.422c-0.708,0-1.284,0.254-1.727,0.762s-0.664,1.312-0.664,2.41c0,1.114,0.214,1.925,0.641,2.43
		s0.984,0.758,1.672,0.758c0.552,0,1.013-0.169,1.383-0.508S56.343,43.378,56.441,42.675z"/>
	<path class="st0" d="M59.035,35.878v-1.617h1.406v1.617H59.035z M59.035,45.714v-8.297h1.406v8.297H59.035z"/>
	<path class="st0" d="M62.059,41.565c0-1.536,0.427-2.675,1.281-3.414c0.714-0.614,1.583-0.922,2.609-0.922
		c1.141,0,2.073,0.374,2.797,1.121s1.086,1.78,1.086,3.098c0,1.067-0.16,1.907-0.48,2.52s-0.786,1.087-1.398,1.426
		s-1.28,0.508-2.004,0.508c-1.161,0-2.101-0.372-2.816-1.117S62.059,42.967,62.059,41.565z M63.504,41.565
		c0,1.062,0.231,1.858,0.695,2.387s1.047,0.793,1.75,0.793c0.698,0,1.278-0.266,1.742-0.797s0.695-1.341,0.695-2.43
		c0-1.026-0.233-1.804-0.699-2.332s-1.046-0.793-1.738-0.793c-0.703,0-1.286,0.263-1.75,0.789S63.504,40.503,63.504,41.565z"/>
	<path class="st0" d="M71.48,45.714v-8.297h1.266v1.18c0.609-0.911,1.489-1.367,2.641-1.367c0.5,0,0.96,0.09,1.379,0.27
		s0.733,0.415,0.941,0.707s0.354,0.638,0.438,1.039c0.052,0.261,0.078,0.716,0.078,1.367v5.102h-1.406v-5.047
		c0-0.573-0.055-1.001-0.164-1.285s-0.304-0.511-0.582-0.68s-0.605-0.254-0.98-0.254c-0.599,0-1.116,0.19-1.551,0.57
		s-0.652,1.102-0.652,2.164v4.531H71.48z"/>
	<path class="st0" d="M85.793,44.69c-0.521,0.442-1.022,0.755-1.504,0.938s-0.999,0.273-1.551,0.273
		c-0.911,0-1.612-0.223-2.102-0.668s-0.734-1.015-0.734-1.707c0-0.406,0.093-0.777,0.277-1.113s0.427-0.605,0.727-0.809
		s0.637-0.356,1.012-0.461c0.276-0.073,0.692-0.144,1.25-0.211c1.136-0.136,1.972-0.297,2.508-0.484
		c0.005-0.192,0.008-0.315,0.008-0.367c0-0.573-0.133-0.977-0.398-1.211c-0.359-0.317-0.894-0.477-1.602-0.477
		c-0.661,0-1.149,0.116-1.465,0.348s-0.548,0.642-0.699,1.23l-1.375-0.188c0.125-0.589,0.331-1.063,0.617-1.426
		s0.7-0.641,1.242-0.836s1.169-0.293,1.883-0.293c0.708,0,1.284,0.083,1.727,0.25s0.769,0.376,0.977,0.629s0.354,0.571,0.438,0.957
		c0.047,0.239,0.07,0.672,0.07,1.297v1.875c0,1.308,0.03,2.134,0.09,2.48s0.179,0.679,0.355,0.996h-1.469
		C85.929,45.422,85.835,45.081,85.793,44.69z M85.676,41.55c-0.511,0.208-1.276,0.386-2.297,0.531
		c-0.578,0.083-0.987,0.177-1.227,0.281s-0.425,0.257-0.555,0.457s-0.195,0.423-0.195,0.668c0,0.375,0.142,0.688,0.426,0.938
		s0.699,0.375,1.246,0.375c0.542,0,1.023-0.118,1.445-0.355s0.731-0.562,0.93-0.973c0.151-0.317,0.227-0.786,0.227-1.406V41.55z"/>
	<path class="st0" d="M89.246,45.714V34.261h1.406v11.453H89.246z"/>
</g>
<g>
</g>
<g>
</g>
<g>
</g>
<g>
</g>
<g>
</g>
<g>
</g>
</svg>
