<?xml version="1.0" encoding="UTF-8"?>
<svg xmlns="http://www.w3.org/2000/svg" xmlns:xlink="http://www.w3.org/1999/xlink" width="100px" height="28px" viewBox="0 0 100 28" version="1.1">
<defs>
<filter id="alpha" filterUnits="objectBoundingBox" x="0%" y="0%" width="100%" height="100%">
  <feColorMatrix type="matrix" in="SourceGraphic" values="0 0 0 0 1 0 0 0 0 1 0 0 0 0 1 0 0 0 1 0"/>
</filter>
<mask id="mask0">
  <g filter="url(#alpha)">
<rect x="0" y="0" width="100" height="28" style="fill:rgb(0%,0%,0%);fill-opacity:0.0509804;stroke:none;"/>
  </g>
</mask>
<clipPath id="clip1">
  <rect x="0" y="0" width="100" height="28"/>
</clipPath>
<g id="surface5" clip-path="url(#clip1)">
<path style=" stroke:none;fill-rule:nonzero;fill:rgb(0%,0%,0%);fill-opacity:1;" d="M 5 0 L 95 0 C 97.761719 0 100 2.238281 100 5 L 100 23 C 100 25.761719 97.761719 28 95 28 L 5 28 C 2.238281 28 0 25.761719 0 23 L 0 5 C 0 2.238281 2.238281 0 5 0 Z M 5 0 "/>
</g>
</defs>
<g id="surface1">
<use xlink:href="#surface5" mask="url(#mask0)"/>
<path style=" stroke:none;fill-rule:nonzero;fill:rgb(100%,100%,100%);fill-opacity:1;" d="M 16 11 L 26 11 L 26 21 L 16 21 Z M 16 11 "/>
<path style=" stroke:none;fill-rule:nonzero;fill:rgb(100%,0%,0%);fill-opacity:1;" d="M 15 21 C 15.003906 22.105469 15.894531 22.996094 17 23 L 25 23 C 26.105469 22.996094 26.996094 22.105469 27 21 L 27 9 L 15 9 L 15 21 M 17.5 13.898438 L 18.898438 12.5 L 21 14.601562 L 23.101562 12.5 L 24.5 13.898438 L 22.398438 16 L 24.5 18.101562 L 23.101562 19.5 L 21 17.398438 L 18.898438 19.5 L 17.5 18.101562 L 19.601562 16 L 17.5 13.898438 M 24.5 6 L 23.5 5 L 18.5 5 L 17.5 6 L 14 6 L 14 8 L 28 8 L 28 6 Z M 24.5 6 "/>
<path style=" stroke:none;fill-rule:nonzero;fill:rgb(0%,0%,0%);fill-opacity:1;" d="M 39.886719 19.03125 L 34.300781 19.03125 L 34.300781 9.035156 L 39.886719 9.035156 L 39.886719 10.140625 L 35.558594 10.140625 L 35.558594 13.261719 L 39.632812 13.261719 L 39.632812 14.355469 L 35.558594 14.355469 L 35.558594 17.925781 L 39.886719 17.925781 Z M 39.886719 19.03125 "/>
<path style=" stroke:none;fill-rule:nonzero;fill:rgb(0%,0%,0%);fill-opacity:1;" d="M 46.800781 16.957031 C 46.839844 17.613281 46.53125 18.238281 45.988281 18.609375 C 45.335938 19.015625 44.574219 19.210938 43.804688 19.167969 C 43.351562 19.175781 42.898438 19.132812 42.453125 19.042969 C 42.105469 18.96875 41.769531 18.851562 41.453125 18.691406 L 41.453125 17.574219 C 41.800781 17.742188 42.164062 17.878906 42.539062 17.984375 C 42.957031 18.113281 43.394531 18.175781 43.832031 18.175781 C 44.304688 18.214844 44.777344 18.109375 45.191406 17.875 C 45.460938 17.695312 45.617188 17.394531 45.613281 17.070312 C 45.613281 16.890625 45.558594 16.714844 45.457031 16.566406 C 45.308594 16.378906 45.121094 16.222656 44.90625 16.117188 C 44.535156 15.921875 44.15625 15.753906 43.761719 15.613281 C 43.335938 15.453125 42.921875 15.265625 42.515625 15.054688 C 42.203125 14.894531 41.929688 14.664062 41.71875 14.382812 C 41.523438 14.082031 41.421875 13.730469 41.4375 13.375 C 41.417969 12.78125 41.714844 12.21875 42.214844 11.902344 C 42.828125 11.53125 43.539062 11.351562 44.253906 11.386719 C 44.683594 11.382812 45.113281 11.429688 45.535156 11.527344 C 45.914062 11.613281 46.289062 11.734375 46.648438 11.890625 L 46.226562 12.871094 C 45.902344 12.738281 45.570312 12.625 45.234375 12.535156 C 44.886719 12.441406 44.527344 12.394531 44.167969 12.394531 C 43.769531 12.371094 43.371094 12.453125 43.015625 12.636719 C 42.769531 12.769531 42.613281 13.023438 42.617188 13.304688 C 42.609375 13.496094 42.671875 13.6875 42.796875 13.835938 C 42.972656 14.011719 43.179688 14.15625 43.40625 14.253906 C 43.691406 14.394531 44.070312 14.554688 44.546875 14.730469 C 44.964844 14.882812 45.375 15.066406 45.765625 15.277344 C 46.074219 15.4375 46.335938 15.671875 46.535156 15.957031 C 46.722656 16.257812 46.816406 16.605469 46.800781 16.957031 Z M 46.800781 16.957031 "/>
<path style=" stroke:none;fill-rule:nonzero;fill:rgb(0%,0%,0%);fill-opacity:1;" d="M 50.273438 19.03125 L 47.429688 11.527344 L 48.746094 11.527344 L 50.34375 15.949219 C 50.417969 16.15625 50.496094 16.382812 50.582031 16.636719 C 50.664062 16.886719 50.738281 17.132812 50.804688 17.363281 C 50.871094 17.597656 50.917969 17.789062 50.945312 17.9375 L 51 17.9375 C 51.042969 17.742188 51.09375 17.546875 51.15625 17.359375 C 51.230469 17.121094 51.308594 16.875 51.394531 16.628906 C 51.476562 16.382812 51.554688 16.15625 51.632812 15.949219 L 53.226562 11.527344 L 54.542969 11.527344 L 51.6875 19.027344 Z M 50.273438 19.03125 "/>
<path style=" stroke:none;fill-rule:nonzero;fill:rgb(0%,0%,0%);fill-opacity:1;" d="M 58.574219 11.398438 C 59.304688 11.339844 60.027344 11.554688 60.605469 12.003906 C 61.085938 12.519531 61.328125 13.214844 61.261719 13.921875 L 61.261719 19.03125 L 60.367188 19.03125 L 60.128906 17.964844 L 60.074219 17.964844 C 59.792969 18.335938 59.441406 18.644531 59.035156 18.875 C 58.574219 19.09375 58.0625 19.195312 57.550781 19.167969 C 56.941406 19.191406 56.34375 19.003906 55.859375 18.628906 C 55.382812 18.207031 55.132812 17.582031 55.1875 16.941406 C 55.160156 16.253906 55.492188 15.597656 56.070312 15.214844 C 56.894531 14.746094 57.835938 14.515625 58.785156 14.550781 L 60.058594 14.507812 L 60.058594 14.058594 C 60.109375 13.589844 59.964844 13.117188 59.652344 12.757812 C 59.328125 12.496094 58.917969 12.367188 58.503906 12.394531 C 58.125 12.390625 57.746094 12.453125 57.386719 12.570312 C 57.046875 12.679688 56.714844 12.8125 56.390625 12.96875 L 56.011719 12.042969 C 56.382812 11.851562 56.773438 11.699219 57.175781 11.589844 C 57.628906 11.460938 58.101562 11.398438 58.574219 11.398438 Z M 60.046875 15.363281 L 58.941406 15.40625 C 58.265625 15.375 57.59375 15.53125 57 15.851562 C 56.644531 16.105469 56.441406 16.523438 56.460938 16.957031 C 56.429688 17.308594 56.574219 17.65625 56.84375 17.882812 C 57.132812 18.085938 57.480469 18.191406 57.832031 18.175781 C 58.402344 18.195312 58.960938 18.007812 59.40625 17.652344 C 59.859375 17.238281 60.09375 16.640625 60.042969 16.035156 Z M 60.046875 15.363281 "/>
<path style=" stroke:none;fill-rule:nonzero;fill:rgb(0%,0%,0%);fill-opacity:1;" d="M 68.429688 19.03125 L 62.945312 19.03125 L 62.945312 18.21875 L 66.976562 12.476562 L 63.179688 12.476562 L 63.179688 11.527344 L 68.332031 11.527344 L 68.332031 12.449219 L 64.355469 18.078125 L 68.429688 18.078125 Z M 68.429688 19.03125 "/>
<path style=" stroke:none;fill-rule:nonzero;fill:rgb(0%,0%,0%);fill-opacity:1;" d="M 70.796875 8.710938 C 70.980469 8.710938 71.15625 8.777344 71.292969 8.902344 C 71.449219 9.058594 71.53125 9.273438 71.511719 9.496094 C 71.53125 9.714844 71.449219 9.933594 71.292969 10.089844 C 71.15625 10.214844 70.980469 10.28125 70.796875 10.28125 C 70.605469 10.285156 70.421875 10.21875 70.277344 10.089844 C 70.125 9.933594 70.050781 9.714844 70.066406 9.496094 C 70.050781 9.277344 70.125 9.058594 70.277344 8.902344 C 70.421875 8.773438 70.605469 8.707031 70.796875 8.710938 Z M 71.398438 11.527344 L 71.398438 19.03125 L 70.167969 19.03125 L 70.167969 11.527344 Z M 71.398438 11.527344 "/>
<path style=" stroke:none;fill-rule:nonzero;fill:rgb(0%,0%,0%);fill-opacity:1;" d="M 76.621094 11.398438 C 77.347656 11.339844 78.074219 11.554688 78.652344 12.003906 C 79.132812 12.519531 79.371094 13.214844 79.308594 13.921875 L 79.308594 19.03125 L 78.414062 19.03125 L 78.175781 17.964844 L 78.117188 17.964844 C 77.839844 18.335938 77.488281 18.644531 77.082031 18.875 C 76.621094 19.09375 76.109375 19.195312 75.597656 19.167969 C 74.988281 19.191406 74.390625 19.003906 73.90625 18.628906 C 73.429688 18.207031 73.179688 17.582031 73.230469 16.941406 C 73.203125 16.253906 73.539062 15.597656 74.113281 15.214844 C 74.941406 14.746094 75.882812 14.515625 76.832031 14.550781 L 78.105469 14.507812 L 78.105469 14.058594 C 78.15625 13.589844 78.011719 13.117188 77.699219 12.757812 C 77.375 12.496094 76.964844 12.367188 76.550781 12.394531 C 76.171875 12.390625 75.792969 12.453125 75.429688 12.570312 C 75.089844 12.679688 74.757812 12.8125 74.4375 12.96875 L 74.058594 12.042969 C 74.429688 11.851562 74.816406 11.699219 75.222656 11.589844 C 75.675781 11.460938 76.148438 11.398438 76.621094 11.398438 Z M 78.089844 15.363281 L 76.984375 15.40625 C 76.3125 15.375 75.640625 15.53125 75.046875 15.851562 C 74.691406 16.105469 74.488281 16.523438 74.507812 16.957031 C 74.476562 17.308594 74.621094 17.65625 74.890625 17.882812 C 75.179688 18.085938 75.527344 18.191406 75.878906 18.175781 C 76.449219 18.195312 77.007812 18.007812 77.453125 17.652344 C 77.90625 17.238281 78.140625 16.640625 78.089844 16.035156 Z M 78.089844 15.363281 "/>
<path style=" stroke:none;fill-rule:nonzero;fill:rgb(0%,0%,0%);fill-opacity:1;" d="M 85.132812 11.386719 C 85.273438 11.386719 85.421875 11.394531 85.582031 11.40625 C 85.726562 11.417969 85.871094 11.441406 86.015625 11.46875 L 85.859375 12.605469 C 85.726562 12.574219 85.589844 12.550781 85.453125 12.535156 C 85.320312 12.515625 85.183594 12.507812 85.046875 12.507812 C 84.667969 12.507812 84.292969 12.613281 83.96875 12.820312 C 83.628906 13.039062 83.351562 13.34375 83.164062 13.703125 C 82.957031 14.113281 82.855469 14.566406 82.863281 15.027344 L 82.863281 19.03125 L 81.632812 19.03125 L 81.632812 11.527344 L 82.640625 11.527344 L 82.78125 12.898438 L 82.835938 12.898438 C 83.070312 12.484375 83.390625 12.121094 83.769531 11.835938 C 84.160156 11.535156 84.640625 11.375 85.132812 11.386719 Z M 85.132812 11.386719 "/>
</g>
</svg>
