<?xml version="1.0" encoding="UTF-8"?>
<svg xmlns="http://www.w3.org/2000/svg" xmlns:xlink="http://www.w3.org/1999/xlink" width="100" height="28" viewBox="0 0 100 28" version="1.1">
<defs>
<filter id="alpha" filterUnits="objectBoundingBox" x="0%" y="0%" width="100%" height="100%">
  <feColorMatrix type="matrix" in="SourceGraphic" values="0 0 0 0 1 0 0 0 0 1 0 0 0 0 1 0 0 0 1 0"/>
</filter>
<mask id="mask0">
  <g filter="url(#alpha)">
<rect x="0" y="0" width="100" height="28" style="fill:rgb(0%,0%,0%);fill-opacity:0.0509804;stroke:none;"/>
  </g>
</mask>
<clipPath id="clip1">
  <rect x="0" y="0" width="100" height="28"/>
</clipPath>
<g id="surface5" clip-path="url(#clip1)">
<path style=" stroke:none;fill-rule:nonzero;fill:rgb(0%,0%,0%);fill-opacity:1;" d="M 5 0 L 95 0 C 97.761719 0 100 2.238281 100 5 L 100 23 C 100 25.761719 97.761719 28 95 28 L 5 28 C 2.238281 28 0 25.761719 0 23 L 0 5 C 0 2.238281 2.238281 0 5 0 Z M 5 0 "/>
</g>
</defs>
<g id="surface1">
<use xlink:href="#surface5" mask="url(#mask0)"/>
<path style=" stroke:none;fill-rule:nonzero;fill:rgb(10.196078%,10.196078%,10.196078%);fill-opacity:1;" d="M 34 6 L 30.5 6 L 29.5 5 L 24.5 5 L 23.5 6 L 20 6 L 20 8 L 34 8 M 21 21 C 21 22.105469 21.894531 23 23 23 L 31 23 C 32.105469 23 33 22.105469 33 21 L 33 9 L 21 9 Z M 21 21 "/>
<path style=" stroke:none;fill-rule:nonzero;fill:rgb(0%,0%,0%);fill-opacity:1;" d="M 39.566406 18.664062 L 39.566406 8.671875 L 40.828125 8.671875 L 40.828125 17.546875 L 45.195312 17.546875 L 45.195312 18.664062 Z M 39.566406 18.664062 "/>
<path style=" stroke:none;fill-rule:nonzero;fill:rgb(0%,0%,0%);fill-opacity:1;" d="M 47.363281 8.347656 C 47.546875 8.347656 47.726562 8.414062 47.863281 8.539062 C 48.019531 8.695312 48.097656 8.910156 48.078125 9.132812 C 48.097656 9.351562 48.019531 9.570312 47.863281 9.726562 C 47.726562 9.851562 47.546875 9.917969 47.363281 9.917969 C 47.175781 9.921875 46.988281 9.855469 46.847656 9.726562 C 46.695312 9.570312 46.617188 9.351562 46.636719 9.132812 C 46.617188 8.914062 46.695312 8.695312 46.847656 8.539062 C 46.988281 8.410156 47.175781 8.34375 47.363281 8.347656 Z M 47.96875 11.164062 L 47.96875 18.664062 L 46.734375 18.664062 L 46.734375 11.164062 Z M 47.96875 11.164062 "/>
<path style=" stroke:none;fill-rule:nonzero;fill:rgb(0%,0%,0%);fill-opacity:1;" d="M 52.125 14.832031 L 49.535156 11.164062 L 50.933594 11.164062 L 52.867188 13.992188 L 54.785156 11.164062 L 56.171875 11.164062 L 53.582031 14.832031 L 56.3125 18.664062 L 54.910156 18.664062 L 52.867188 15.671875 L 50.796875 18.664062 L 49.410156 18.664062 Z M 52.125 14.832031 "/>
<path style=" stroke:none;fill-rule:nonzero;fill:rgb(0%,0%,0%);fill-opacity:1;" d="M 60.371094 11.023438 C 60.949219 11.007812 61.523438 11.152344 62.023438 11.441406 C 62.488281 11.722656 62.863281 12.132812 63.09375 12.625 C 63.351562 13.183594 63.480469 13.796875 63.464844 14.410156 L 63.464844 15.152344 L 58.328125 15.152344 C 58.292969 15.859375 58.527344 16.550781 58.976562 17.09375 C 59.4375 17.554688 60.074219 17.792969 60.722656 17.757812 C 61.148438 17.761719 61.574219 17.71875 61.988281 17.625 C 62.378906 17.527344 62.761719 17.398438 63.128906 17.238281 L 63.128906 18.316406 C 62.765625 18.480469 62.382812 18.601562 61.996094 18.6875 C 61.558594 18.773438 61.113281 18.8125 60.664062 18.808594 C 60.007812 18.820312 59.359375 18.671875 58.773438 18.375 C 58.230469 18.082031 57.789062 17.632812 57.507812 17.085938 C 57.183594 16.429688 57.027344 15.703125 57.054688 14.972656 C 57.035156 14.246094 57.175781 13.523438 57.464844 12.855469 C 57.714844 12.300781 58.117188 11.828125 58.628906 11.5 C 59.152344 11.175781 59.757812 11.007812 60.371094 11.023438 Z M 60.355469 12.03125 C 59.832031 12.003906 59.320312 12.210938 58.964844 12.597656 C 58.597656 13.042969 58.382812 13.59375 58.355469 14.171875 L 62.175781 14.171875 C 62.191406 13.621094 62.035156 13.082031 61.730469 12.625 C 61.398438 12.210938 60.886719 11.988281 60.355469 12.03125 Z M 60.355469 12.03125 "/>
<path style=" stroke:none;fill-rule:nonzero;fill:rgb(0%,0%,0%);fill-opacity:1;" d="M 66 8.347656 C 66.183594 8.347656 66.359375 8.414062 66.496094 8.539062 C 66.652344 8.695312 66.730469 8.910156 66.714844 9.132812 C 66.730469 9.351562 66.652344 9.570312 66.496094 9.726562 C 66.359375 9.851562 66.183594 9.917969 66 9.917969 C 65.808594 9.921875 65.621094 9.855469 65.480469 9.726562 C 65.328125 9.570312 65.25 9.351562 65.269531 9.132812 C 65.25 8.914062 65.328125 8.695312 65.480469 8.539062 C 65.621094 8.410156 65.808594 8.34375 66 8.347656 Z M 66.601562 11.164062 L 66.601562 18.664062 L 65.367188 18.664062 L 65.367188 11.164062 Z M 66.601562 11.164062 "/>
<path style=" stroke:none;fill-rule:nonzero;fill:rgb(0%,0%,0%);fill-opacity:1;" d="M 72.480469 11.023438 C 72.621094 11.023438 72.769531 11.03125 72.929688 11.042969 C 73.074219 11.054688 73.21875 11.078125 73.363281 11.105469 L 73.210938 12.242188 C 73.074219 12.210938 72.9375 12.1875 72.800781 12.171875 C 72.667969 12.152344 72.53125 12.144531 72.398438 12.144531 C 72.015625 12.144531 71.640625 12.253906 71.320312 12.457031 C 70.976562 12.675781 70.699219 12.980469 70.515625 13.339844 C 70.304688 13.75 70.203125 14.203125 70.214844 14.664062 L 70.214844 18.664062 L 68.980469 18.664062 L 68.980469 11.164062 L 69.988281 11.164062 L 70.128906 12.535156 L 70.183594 12.535156 C 70.421875 12.121094 70.738281 11.757812 71.117188 11.46875 C 71.507812 11.171875 71.988281 11.011719 72.480469 11.023438 Z M 72.480469 11.023438 "/>
<path style=" stroke:none;fill-rule:nonzero;fill:rgb(0%,0%,0%);fill-opacity:1;" d="M 77.324219 11.035156 C 78.054688 10.976562 78.777344 11.191406 79.355469 11.640625 C 79.835938 12.15625 80.078125 12.851562 80.011719 13.554688 L 80.011719 18.664062 L 79.117188 18.664062 L 78.878906 17.601562 L 78.824219 17.601562 C 78.542969 17.972656 78.191406 18.28125 77.785156 18.511719 C 77.324219 18.730469 76.8125 18.832031 76.300781 18.804688 C 75.691406 18.828125 75.09375 18.640625 74.609375 18.265625 C 74.132812 17.84375 73.882812 17.21875 73.9375 16.578125 C 73.910156 15.890625 74.242188 15.234375 74.820312 14.851562 C 75.644531 14.382812 76.585938 14.152344 77.535156 14.1875 L 78.808594 14.144531 L 78.808594 13.695312 C 78.859375 13.222656 78.714844 12.753906 78.402344 12.394531 C 78.078125 12.132812 77.667969 12.003906 77.253906 12.03125 C 76.875 12.027344 76.496094 12.085938 76.136719 12.207031 C 75.796875 12.316406 75.464844 12.449219 75.140625 12.605469 L 74.761719 11.679688 C 75.132812 11.488281 75.523438 11.332031 75.925781 11.226562 C 76.378906 11.097656 76.851562 11.035156 77.324219 11.035156 Z M 78.796875 15 L 77.691406 15.039062 C 77.015625 15.011719 76.34375 15.167969 75.75 15.488281 C 75.394531 15.742188 75.191406 16.160156 75.210938 16.59375 C 75.183594 16.945312 75.324219 17.292969 75.597656 17.519531 C 75.882812 17.722656 76.230469 17.828125 76.582031 17.8125 C 77.15625 17.832031 77.714844 17.644531 78.160156 17.285156 C 78.609375 16.875 78.84375 16.277344 78.796875 15.667969 Z M 78.796875 15 "/>
</g>
</svg>
