<?xml version="1.0" encoding="UTF-8"?>
<svg xmlns="http://www.w3.org/2000/svg" xmlns:xlink="http://www.w3.org/1999/xlink" width="100" height="28" viewBox="0 0 100 28" version="1.1">
<defs>
<filter id="alpha" filterUnits="objectBoundingBox" x="0%" y="0%" width="100%" height="100%">
  <feColorMatrix type="matrix" in="SourceGraphic" values="0 0 0 0 1 0 0 0 0 1 0 0 0 0 1 0 0 0 1 0"/>
</filter>
<mask id="mask0">
  <g filter="url(#alpha)">
<rect x="0" y="0" width="100" height="28" style="fill:rgb(0%,0%,0%);fill-opacity:0.0509804;stroke:none;"/>
  </g>
</mask>
<clipPath id="clip1">
  <rect x="0" y="0" width="100" height="28"/>
</clipPath>
<g id="surface5" clip-path="url(#clip1)">
<path style=" stroke:none;fill-rule:nonzero;fill:rgb(0%,0%,0%);fill-opacity:1;" d="M 5 0 L 95 0 C 97.761719 0 100 2.238281 100 5 L 100 23 C 100 25.761719 97.761719 28 95 28 L 5 28 C 2.238281 28 0 25.761719 0 23 L 0 5 C 0 2.238281 2.238281 0 5 0 Z M 5 0 "/>
</g>
</defs>
<g id="surface1">
<use xlink:href="#surface5" mask="url(#mask0)"/>
<path style=" stroke:none;fill-rule:nonzero;fill:rgb(10.196078%,10.196078%,10.196078%);fill-opacity:1;" d="M 9 23.25 L 30 14.25 L 9 5.25 L 9 12.25 L 24 14.25 L 9 16.25 Z M 9 23.25 "/>
<path style=" stroke:none;fill-rule:nonzero;fill:rgb(0%,0%,0%);fill-opacity:1;" d="M 39.042969 19.277344 L 33.457031 19.277344 L 33.457031 9.28125 L 39.042969 9.28125 L 39.042969 10.386719 L 34.71875 10.386719 L 34.71875 13.507812 L 38.792969 13.507812 L 38.792969 14.601562 L 34.71875 14.601562 L 34.71875 18.171875 L 39.042969 18.171875 Z M 39.042969 19.277344 "/>
<path style=" stroke:none;fill-rule:nonzero;fill:rgb(0%,0%,0%);fill-opacity:1;" d="M 44.6875 11.632812 C 45.421875 11.578125 46.152344 11.8125 46.714844 12.289062 C 47.222656 12.867188 47.472656 13.625 47.402344 14.390625 L 47.402344 19.277344 L 46.183594 19.277344 L 46.183594 14.472656 C 46.183594 13.269531 45.625 12.667969 44.503906 12.667969 C 43.847656 12.59375 43.199219 12.855469 42.78125 13.367188 C 42.429688 13.976562 42.261719 14.679688 42.304688 15.382812 L 42.304688 19.277344 L 41.074219 19.277344 L 41.074219 11.773438 L 42.070312 11.773438 L 42.25 12.792969 L 42.320312 12.792969 C 42.558594 12.40625 42.910156 12.101562 43.328125 11.917969 C 43.757812 11.726562 44.21875 11.628906 44.6875 11.632812 Z M 44.6875 11.632812 "/>
<path style=" stroke:none;fill-rule:nonzero;fill:rgb(0%,0%,0%);fill-opacity:1;" d="M 51.378906 19.277344 L 48.535156 11.773438 L 49.851562 11.773438 L 51.449219 16.195312 C 51.523438 16.402344 51.601562 16.628906 51.6875 16.882812 C 51.769531 17.132812 51.84375 17.378906 51.910156 17.609375 C 51.976562 17.84375 52.023438 18.035156 52.050781 18.183594 L 52.105469 18.183594 C 52.148438 17.988281 52.199219 17.792969 52.261719 17.605469 C 52.335938 17.367188 52.414062 17.121094 52.496094 16.875 C 52.582031 16.628906 52.660156 16.402344 52.734375 16.195312 L 54.332031 11.773438 L 55.648438 11.773438 L 52.792969 19.277344 Z M 51.378906 19.277344 "/>
<path style=" stroke:none;fill-rule:nonzero;fill:rgb(0%,0%,0%);fill-opacity:1;" d="M 57.46875 8.957031 C 57.652344 8.957031 57.828125 9.023438 57.964844 9.148438 C 58.121094 9.304688 58.203125 9.519531 58.183594 9.742188 C 58.203125 9.960938 58.121094 10.179688 57.964844 10.335938 C 57.828125 10.460938 57.652344 10.527344 57.46875 10.527344 C 57.277344 10.53125 57.09375 10.464844 56.949219 10.335938 C 56.796875 10.179688 56.722656 9.960938 56.738281 9.742188 C 56.722656 9.523438 56.796875 9.304688 56.949219 9.148438 C 57.09375 9.019531 57.277344 8.953125 57.46875 8.957031 Z M 58.070312 11.773438 L 58.070312 19.277344 L 56.839844 19.277344 L 56.839844 11.773438 Z M 58.070312 11.773438 "/>
<path style=" stroke:none;fill-rule:nonzero;fill:rgb(0%,0%,0%);fill-opacity:1;" d="M 63.292969 11.644531 C 64.019531 11.585938 64.746094 11.800781 65.324219 12.246094 C 65.804688 12.765625 66.042969 13.460938 65.980469 14.164062 L 65.980469 19.277344 L 65.085938 19.277344 L 64.847656 18.210938 L 64.789062 18.210938 C 64.511719 18.582031 64.160156 18.890625 63.753906 19.121094 C 63.292969 19.339844 62.78125 19.441406 62.269531 19.414062 C 61.660156 19.4375 61.0625 19.25 60.578125 18.875 C 60.101562 18.453125 59.851562 17.828125 59.90625 17.1875 C 59.875 16.5 60.210938 15.84375 60.785156 15.460938 C 61.613281 14.992188 62.554688 14.761719 63.503906 14.796875 L 64.777344 14.753906 L 64.777344 14.304688 C 64.828125 13.835938 64.683594 13.363281 64.371094 13.003906 C 64.046875 12.742188 63.636719 12.613281 63.222656 12.640625 C 62.84375 12.636719 62.464844 12.695312 62.101562 12.816406 C 61.761719 12.925781 61.429688 13.058594 61.109375 13.214844 L 60.730469 12.289062 C 61.101562 12.09375 61.488281 11.941406 61.894531 11.835938 C 62.347656 11.707031 62.820312 11.644531 63.292969 11.644531 Z M 64.761719 15.605469 L 63.65625 15.652344 C 62.984375 15.621094 62.3125 15.777344 61.71875 16.097656 C 61.363281 16.351562 61.160156 16.769531 61.179688 17.203125 C 61.148438 17.554688 61.292969 17.902344 61.5625 18.128906 C 61.851562 18.332031 62.199219 18.4375 62.550781 18.421875 C 63.121094 18.441406 63.679688 18.253906 64.125 17.898438 C 64.578125 17.484375 64.8125 16.886719 64.761719 16.28125 Z M 64.761719 15.605469 "/>
<path style=" stroke:none;fill-rule:nonzero;fill:rgb(0%,0%,0%);fill-opacity:1;" d="M 70.964844 19.414062 C 70.109375 19.449219 69.285156 19.09375 68.722656 18.445312 C 68.105469 17.605469 67.804688 16.574219 67.882812 15.539062 C 67.808594 14.496094 68.109375 13.460938 68.730469 12.617188 C 69.675781 11.613281 71.164062 11.34375 72.398438 11.953125 C 72.75 12.152344 73.058594 12.417969 73.300781 12.738281 L 73.386719 12.738281 C 73.367188 12.617188 73.347656 12.4375 73.332031 12.199219 C 73.3125 11.960938 73.300781 11.773438 73.300781 11.632812 L 73.300781 8.636719 L 74.535156 8.636719 L 74.535156 19.277344 L 73.539062 19.277344 L 73.359375 18.269531 L 73.300781 18.269531 C 73.0625 18.597656 72.757812 18.875 72.40625 19.082031 C 71.964844 19.320312 71.464844 19.4375 70.964844 19.414062 Z M 71.160156 18.394531 C 71.789062 18.460938 72.414062 18.21875 72.832031 17.742188 C 73.195312 17.152344 73.367188 16.464844 73.316406 15.777344 L 73.316406 15.550781 C 73.359375 14.808594 73.199219 14.0625 72.855469 13.402344 C 72.460938 12.863281 71.808594 12.578125 71.148438 12.652344 C 70.542969 12.621094 69.96875 12.925781 69.65625 13.445312 C 69.292969 14.089844 69.121094 14.828125 69.15625 15.566406 C 69.117188 16.296875 69.289062 17.019531 69.65625 17.652344 C 69.988281 18.148438 70.5625 18.429688 71.160156 18.394531 Z M 71.160156 18.394531 "/>
<path style=" stroke:none;fill-rule:nonzero;fill:rgb(0%,0%,0%);fill-opacity:1;" d="M 83.4375 15.511719 C 83.503906 16.558594 83.164062 17.589844 82.492188 18.394531 C 81.828125 19.089844 80.898438 19.460938 79.9375 19.417969 C 79.316406 19.425781 78.707031 19.269531 78.167969 18.960938 C 77.636719 18.648438 77.210938 18.183594 76.941406 17.632812 C 76.625 16.96875 76.472656 16.242188 76.492188 15.511719 C 76.425781 14.46875 76.757812 13.441406 77.425781 12.640625 C 78.089844 11.949219 79.023438 11.582031 79.980469 11.632812 C 80.605469 11.621094 81.226562 11.777344 81.773438 12.085938 C 82.300781 12.398438 82.726562 12.855469 82.996094 13.402344 C 83.308594 14.058594 83.460938 14.78125 83.4375 15.511719 Z M 77.765625 15.511719 C 77.730469 16.25 77.910156 16.984375 78.292969 17.617188 C 78.707031 18.109375 79.320312 18.394531 79.960938 18.394531 C 80.605469 18.394531 81.21875 18.109375 81.632812 17.617188 C 82.015625 16.984375 82.203125 16.25 82.164062 15.511719 C 82.207031 14.777344 82.019531 14.046875 81.632812 13.425781 C 81.238281 12.902344 80.605469 12.617188 79.949219 12.667969 C 79.300781 12.613281 78.671875 12.898438 78.285156 13.425781 C 77.90625 14.050781 77.726562 14.777344 77.769531 15.511719 Z M 77.765625 15.511719 "/>
<path style=" stroke:none;fill-rule:nonzero;fill:rgb(0%,0%,0%);fill-opacity:1;" d="M 90.269531 17.203125 C 90.308594 17.859375 90 18.484375 89.457031 18.855469 C 88.804688 19.261719 88.042969 19.457031 87.273438 19.414062 C 86.820312 19.421875 86.367188 19.378906 85.921875 19.289062 C 85.574219 19.21875 85.238281 19.097656 84.921875 18.941406 L 84.921875 17.820312 C 85.269531 17.988281 85.632812 18.125 86.007812 18.230469 C 86.429688 18.359375 86.863281 18.421875 87.300781 18.421875 C 87.773438 18.460938 88.246094 18.355469 88.660156 18.121094 C 88.929688 17.941406 89.085938 17.640625 89.082031 17.316406 C 89.082031 17.136719 89.027344 16.960938 88.925781 16.8125 C 88.777344 16.625 88.589844 16.472656 88.375 16.363281 C 88.003906 16.167969 87.625 16 87.234375 15.859375 C 86.804688 15.699219 86.390625 15.511719 85.988281 15.300781 C 85.671875 15.140625 85.398438 14.910156 85.1875 14.628906 C 84.992188 14.328125 84.894531 13.976562 84.910156 13.621094 C 84.886719 13.027344 85.183594 12.464844 85.6875 12.148438 C 86.296875 11.777344 87.007812 11.597656 87.722656 11.632812 C 88.152344 11.628906 88.582031 11.675781 89.003906 11.773438 C 89.382812 11.859375 89.757812 11.980469 90.117188 12.136719 L 89.695312 13.117188 C 89.371094 12.984375 89.039062 12.871094 88.703125 12.78125 C 88.355469 12.6875 87.996094 12.640625 87.640625 12.640625 C 87.238281 12.617188 86.839844 12.699219 86.484375 12.886719 C 86.238281 13.015625 86.082031 13.269531 86.085938 13.550781 C 86.078125 13.742188 86.140625 13.933594 86.265625 14.082031 C 86.441406 14.257812 86.648438 14.402344 86.875 14.503906 C 87.160156 14.644531 87.539062 14.800781 88.015625 14.976562 C 88.433594 15.128906 88.84375 15.3125 89.234375 15.523438 C 89.542969 15.683594 89.804688 15.917969 90.003906 16.203125 C 90.191406 16.503906 90.285156 16.851562 90.269531 17.203125 Z M 90.269531 17.203125 "/>
</g>
</svg>
