<?xml version="1.0" encoding="UTF-8"?>
<svg xmlns="http://www.w3.org/2000/svg" xmlns:xlink="http://www.w3.org/1999/xlink" width="100px" height="28px" viewBox="0 0 100 28" version="1.1">
<defs>
<filter id="alpha" filterUnits="objectBoundingBox" x="0%" y="0%" width="100%" height="100%">
  <feColorMatrix type="matrix" in="SourceGraphic" values="0 0 0 0 1 0 0 0 0 1 0 0 0 0 1 0 0 0 1 0"/>
</filter>
<mask id="mask0">
  <g filter="url(#alpha)">
<rect x="0" y="0" width="100" height="28" style="fill:rgb(0%,0%,0%);fill-opacity:0.0509804;stroke:none;"/>
  </g>
</mask>
<clipPath id="clip1">
  <rect x="0" y="0" width="100" height="28"/>
</clipPath>
<g id="surface5" clip-path="url(#clip1)">
<path style=" stroke:none;fill-rule:nonzero;fill:rgb(0%,0%,0%);fill-opacity:1;" d="M 5 0 L 95 0 C 97.761719 0 100 2.238281 100 5 L 100 23 C 100 25.761719 97.761719 28 95 28 L 5 28 C 2.238281 28 0 25.761719 0 23 L 0 5 C 0 2.238281 2.238281 0 5 0 Z M 5 0 "/>
</g>
</defs>
<g id="surface1">
<use xlink:href="#surface5" mask="url(#mask0)"/>
<path style=" stroke:none;fill-rule:nonzero;fill:rgb(0%,0%,0%);fill-opacity:1;" d="M 44.917969 14.90625 L 41.25 14.90625 L 41.25 18.308594 L 45.339844 18.308594 L 45.339844 19.335938 L 40.03125 19.335938 L 40.03125 9.894531 L 45.128906 9.894531 L 45.128906 10.914062 L 41.25 10.914062 L 41.25 13.898438 L 44.917969 13.898438 Z M 44.917969 14.90625 "/>
<path style=" stroke:none;fill-rule:nonzero;fill:rgb(0%,0%,0%);fill-opacity:1;" d="M 46.707031 18.074219 C 47.195312 18.378906 47.757812 18.546875 48.332031 18.5625 C 49.230469 18.5625 49.648438 18.113281 49.648438 17.554688 C 49.648438 16.964844 49.300781 16.644531 48.390625 16.308594 C 47.167969 15.871094 46.59375 15.199219 46.59375 14.386719 C 46.621094 13.804688 46.886719 13.261719 47.332031 12.882812 C 47.773438 12.503906 48.355469 12.328125 48.9375 12.398438 C 49.519531 12.394531 50.09375 12.539062 50.601562 12.820312 L 50.292969 13.714844 C 49.878906 13.460938 49.398438 13.324219 48.90625 13.324219 C 48.179688 13.324219 47.773438 13.742188 47.773438 14.25 C 47.773438 14.808594 48.179688 15.058594 49.0625 15.398438 C 50.238281 15.84375 50.839844 16.433594 50.839844 17.441406 C 50.839844 18.632812 49.917969 19.472656 48.304688 19.472656 C 47.640625 19.484375 46.984375 19.328125 46.398438 19.011719 Z M 46.707031 18.074219 "/>
<path style=" stroke:none;fill-rule:nonzero;fill:rgb(0%,0%,0%);fill-opacity:1;" d="M 57.253906 19.082031 C 56.640625 19.355469 55.976562 19.488281 55.304688 19.472656 C 54.382812 19.519531 53.480469 19.167969 52.835938 18.507812 C 52.191406 17.84375 51.859375 16.9375 51.929688 16.011719 C 51.882812 15.039062 52.253906 14.089844 52.949219 13.402344 C 53.644531 12.714844 54.597656 12.355469 55.570312 12.414062 C 56.160156 12.40625 56.742188 12.527344 57.28125 12.765625 L 57 13.714844 C 56.558594 13.488281 56.066406 13.375 55.570312 13.394531 C 54.902344 13.378906 54.257812 13.648438 53.796875 14.136719 C 53.339844 14.628906 53.113281 15.289062 53.175781 15.957031 C 53.117188 16.613281 53.339844 17.265625 53.789062 17.75 C 54.238281 18.234375 54.871094 18.503906 55.53125 18.492188 C 56.054688 18.496094 56.570312 18.378906 57.042969 18.15625 Z M 57.253906 19.082031 "/>
<path style=" stroke:none;fill-rule:nonzero;fill:rgb(0%,0%,0%);fill-opacity:1;" d="M 58.691406 14.667969 C 58.691406 13.871094 58.679688 13.183594 58.636719 12.554688 L 59.714844 12.554688 L 59.757812 13.886719 L 59.8125 13.886719 C 60.050781 13.035156 60.808594 12.433594 61.691406 12.398438 C 61.808594 12.398438 61.925781 12.414062 62.039062 12.441406 L 62.039062 13.605469 C 61.902344 13.574219 61.761719 13.558594 61.621094 13.5625 C 60.75 13.597656 60.039062 14.277344 59.964844 15.144531 C 59.933594 15.335938 59.914062 15.527344 59.910156 15.71875 L 59.910156 19.335938 L 58.691406 19.335938 Z M 58.691406 14.667969 "/>
<path style=" stroke:none;fill-rule:nonzero;fill:rgb(0%,0%,0%);fill-opacity:1;" d="M 63.816406 16.167969 C 63.761719 16.800781 63.988281 17.429688 64.433594 17.882812 C 64.882812 18.335938 65.507812 18.570312 66.140625 18.523438 C 66.785156 18.542969 67.425781 18.421875 68.019531 18.171875 L 68.230469 19.050781 C 67.515625 19.351562 66.746094 19.496094 65.972656 19.472656 C 65.058594 19.53125 64.164062 19.1875 63.523438 18.53125 C 62.882812 17.871094 62.558594 16.96875 62.640625 16.054688 C 62.640625 14.011719 63.84375 12.398438 65.820312 12.398438 C 68.03125 12.398438 68.621094 14.347656 68.621094 15.59375 C 68.621094 15.785156 68.605469 15.976562 68.578125 16.167969 Z M 67.429688 15.285156 C 67.5 14.785156 67.355469 14.28125 67.027344 13.898438 C 66.703125 13.515625 66.226562 13.289062 65.722656 13.28125 C 64.667969 13.359375 63.847656 14.230469 63.832031 15.285156 Z M 67.429688 15.285156 "/>
<path style=" stroke:none;fill-rule:nonzero;fill:rgb(0%,0%,0%);fill-opacity:1;" d="M 70.621094 12.554688 L 71.949219 16.363281 C 72.164062 16.933594 72.34375 17.511719 72.496094 18.101562 L 72.539062 18.101562 C 72.691406 17.539062 72.890625 16.980469 73.113281 16.363281 L 74.429688 12.554688 L 75.71875 12.554688 L 73.058594 19.332031 L 71.882812 19.332031 L 69.300781 12.554688 Z M 70.621094 12.554688 "/>
<path style=" stroke:none;fill-rule:nonzero;fill:rgb(0%,0%,0%);fill-opacity:1;" d="M 77.425781 16.167969 C 77.371094 16.800781 77.597656 17.429688 78.042969 17.882812 C 78.492188 18.335938 79.113281 18.570312 79.75 18.523438 C 80.394531 18.542969 81.035156 18.421875 81.628906 18.171875 L 81.835938 19.050781 C 81.125 19.351562 80.355469 19.496094 79.582031 19.472656 C 78.667969 19.53125 77.769531 19.1875 77.128906 18.53125 C 76.488281 17.871094 76.167969 16.96875 76.25 16.054688 C 76.25 14.011719 77.453125 12.398438 79.429688 12.398438 C 81.640625 12.398438 82.230469 14.347656 82.230469 15.59375 C 82.226562 15.785156 82.214844 15.976562 82.1875 16.167969 Z M 81.039062 15.285156 C 81.109375 14.785156 80.964844 14.28125 80.636719 13.898438 C 80.308594 13.515625 79.832031 13.289062 79.332031 13.28125 C 78.277344 13.359375 77.457031 14.230469 77.4375 15.285156 Z M 81.039062 15.285156 "/>
<path style=" stroke:none;fill-rule:nonzero;fill:rgb(0%,0%,0%);fill-opacity:1;" d="M 83.753906 14.667969 C 83.753906 13.871094 83.738281 13.183594 83.695312 12.554688 L 84.773438 12.554688 L 84.816406 13.886719 L 84.871094 13.886719 C 85.109375 13.035156 85.867188 12.433594 86.75 12.398438 C 86.867188 12.398438 86.984375 12.414062 87.101562 12.441406 L 87.101562 13.605469 C 86.960938 13.574219 86.820312 13.558594 86.679688 13.5625 C 85.808594 13.597656 85.101562 14.277344 85.027344 15.144531 C 84.992188 15.335938 84.972656 15.527344 84.972656 15.71875 L 84.972656 19.335938 L 83.753906 19.335938 Z M 83.753906 14.667969 "/>
<path style=" stroke:none;fill-rule:nonzero;fill:rgb(10.196078%,10.196078%,10.196078%);fill-opacity:1;" d="M 33.585938 14.128906 C 33.441406 14.132812 33.300781 14.195312 33.199219 14.300781 L 32.199219 15.300781 L 34.246094 17.300781 L 35.246094 16.300781 C 35.351562 16.199219 35.414062 16.058594 35.414062 15.914062 C 35.414062 15.769531 35.351562 15.628906 35.246094 15.53125 L 34.007812 14.300781 C 33.90625 14.195312 33.769531 14.136719 33.628906 14.128906 M 31.628906 15.878906 L 25.585938 21.941406 L 25.585938 24 L 27.648438 24 L 33.707031 17.929688 M 32.964844 6 L 16.996094 6 C 15.890625 6 15 6.898438 15 8 L 15 20 C 15 21.101562 15.890625 22 16.996094 22 L 23.980469 22 L 23.980469 21.109375 L 32.207031 12.890625 C 32.675781 12.402344 33.324219 12.128906 34.003906 12.128906 C 34.34375 12.128906 34.683594 12.191406 35 12.320312 L 35 8 C 34.996094 7.464844 34.78125 6.953125 34.398438 6.578125 C 34.015625 6.203125 33.5 5.992188 32.964844 6 M 33 10 L 25 15 L 17 10 L 17 8 L 25 13 L 33 8 "/>
</g>
</svg>
