<?xml version="1.0" encoding="UTF-8"?>
<svg xmlns="http://www.w3.org/2000/svg" xmlns:xlink="http://www.w3.org/1999/xlink" width="100px" height="28px" viewBox="0 0 100 28" version="1.1">
<defs>
<filter id="alpha" filterUnits="objectBoundingBox" x="0%" y="0%" width="100%" height="100%">
  <feColorMatrix type="matrix" in="SourceGraphic" values="0 0 0 0 1 0 0 0 0 1 0 0 0 0 1 0 0 0 1 0"/>
</filter>
<mask id="mask0">
  <g filter="url(#alpha)">
<rect x="0" y="0" width="100" height="28" style="fill:rgb(0%,0%,0%);fill-opacity:0.0509804;stroke:none;"/>
  </g>
</mask>
<clipPath id="clip1">
  <rect x="0" y="0" width="100" height="28"/>
</clipPath>
<g id="surface5" clip-path="url(#clip1)">
<path style=" stroke:none;fill-rule:nonzero;fill:rgb(0%,0%,0%);fill-opacity:1;" d="M 5 0 L 95 0 C 97.761719 0 100 2.238281 100 5 L 100 23 C 100 25.761719 97.761719 28 95 28 L 5 28 C 2.238281 28 0 25.761719 0 23 L 0 5 C 0 2.238281 2.238281 0 5 0 Z M 5 0 "/>
</g>
</defs>
<g id="surface1">
<use xlink:href="#surface5" mask="url(#mask0)"/>
<path style=" stroke:none;fill-rule:nonzero;fill:rgb(10.196078%,10.196078%,10.196078%);fill-opacity:1;" d="M 21 5 L 37 5 C 38.105469 5 39 5.894531 39 7 L 39 11.820312 C 37.996094 10.847656 36.699219 10.230469 35.308594 10.058594 L 37 9 L 37 7 L 29 12 L 21 7 L 21 9 L 28.621094 13.761719 C 28.210938 14.617188 28 15.550781 28 16.5 C 28 18.175781 28.648438 19.789062 29.808594 21 L 21 21 C 19.894531 21 19 20.105469 19 19 L 19 7 C 19 6.46875 19.207031 5.960938 19.582031 5.582031 C 19.960938 5.207031 20.46875 5 21 5 M 34.5 12 C 36.136719 12 37.648438 12.894531 38.4375 14.328125 C 39.230469 15.761719 39.179688 17.511719 38.308594 18.898438 L 41.390625 22 L 40 23.390625 L 36.878906 20.320312 C 35.257812 21.328125 33.175781 21.207031 31.6875 20.011719 C 30.195312 18.816406 29.621094 16.8125 30.253906 15.007812 C 30.886719 13.207031 32.589844 12 34.5 12 M 34.5 14 C 33.121094 14 32 15.121094 32 16.5 C 32 17.878906 33.121094 19 34.5 19 C 35.878906 19 37 17.878906 37 16.5 C 37 15.121094 35.878906 14 34.5 14 Z M 34.5 14 "/>
<path style=" stroke:none;fill-rule:nonzero;fill:rgb(0%,0%,0%);fill-opacity:1;" d="M 44.300781 8.933594 L 47.15625 8.933594 C 48.128906 8.875 49.105469 9.066406 49.984375 9.492188 C 50.644531 9.894531 51.019531 10.640625 50.949219 11.410156 C 50.96875 11.941406 50.792969 12.460938 50.460938 12.871094 C 50.09375 13.28125 49.589844 13.546875 49.046875 13.621094 L 49.046875 13.691406 C 49.441406 13.757812 49.828125 13.886719 50.1875 14.070312 C 50.519531 14.242188 50.800781 14.503906 50.992188 14.824219 C 51.203125 15.210938 51.304688 15.648438 51.285156 16.085938 C 51.328125 16.894531 50.984375 17.675781 50.355469 18.183594 C 49.617188 18.714844 48.722656 18.976562 47.8125 18.925781 L 44.300781 18.925781 Z M 45.558594 13.1875 L 47.40625 13.1875 C 48.023438 13.25 48.640625 13.105469 49.164062 12.773438 C 49.503906 12.460938 49.679688 12.011719 49.648438 11.550781 C 49.6875 11.078125 49.464844 10.625 49.066406 10.367188 C 48.488281 10.089844 47.851562 9.964844 47.210938 10.011719 L 45.558594 10.011719 Z M 45.558594 14.238281 L 45.558594 17.863281 L 47.574219 17.863281 C 48.234375 17.933594 48.898438 17.75 49.421875 17.34375 C 49.773438 16.984375 49.960938 16.492188 49.941406 15.988281 C 49.957031 15.507812 49.761719 15.042969 49.402344 14.71875 C 48.835938 14.339844 48.15625 14.167969 47.476562 14.238281 Z M 45.558594 14.238281 "/>
<path style=" stroke:none;fill-rule:nonzero;fill:rgb(0%,0%,0%);fill-opacity:1;" d="M 59.503906 11.425781 L 59.503906 18.925781 L 58.496094 18.925781 L 58.3125 17.933594 L 58.257812 17.933594 C 58.019531 18.320312 57.667969 18.621094 57.25 18.792969 C 56.816406 18.976562 56.347656 19.070312 55.878906 19.066406 C 55.136719 19.125 54.402344 18.890625 53.832031 18.417969 C 53.328125 17.847656 53.078125 17.097656 53.148438 16.339844 L 53.148438 11.425781 L 54.394531 11.425781 L 54.394531 16.253906 C 54.394531 17.449219 54.949219 18.046875 56.058594 18.046875 C 56.71875 18.121094 57.367188 17.855469 57.789062 17.34375 C 58.148438 16.738281 58.316406 16.035156 58.273438 15.328125 L 58.273438 11.425781 Z M 59.503906 11.425781 "/>
<path style=" stroke:none;fill-rule:nonzero;fill:rgb(0%,0%,0%);fill-opacity:1;" d="M 66.769531 16.855469 C 66.804688 17.511719 66.5 18.136719 65.957031 18.507812 C 65.304688 18.914062 64.542969 19.109375 63.773438 19.066406 C 63.320312 19.074219 62.867188 19.03125 62.421875 18.941406 C 62.074219 18.867188 61.738281 18.75 61.421875 18.589844 L 61.421875 17.472656 C 61.769531 17.640625 62.132812 17.777344 62.507812 17.882812 C 62.925781 18.011719 63.363281 18.074219 63.800781 18.074219 C 64.273438 18.113281 64.746094 18.007812 65.160156 17.773438 C 65.429688 17.59375 65.585938 17.292969 65.578125 16.96875 C 65.582031 16.789062 65.527344 16.613281 65.425781 16.464844 C 65.277344 16.277344 65.089844 16.125 64.871094 16.015625 C 64.503906 15.820312 64.125 15.652344 63.730469 15.511719 C 63.304688 15.351562 62.890625 15.164062 62.484375 14.953125 C 62.171875 14.792969 61.898438 14.5625 61.6875 14.28125 C 61.492188 13.984375 61.394531 13.628906 61.40625 13.273438 C 61.386719 12.679688 61.683594 12.117188 62.183594 11.804688 C 62.796875 11.433594 63.507812 11.25 64.222656 11.285156 C 64.652344 11.28125 65.082031 11.328125 65.503906 11.425781 C 65.882812 11.511719 66.257812 11.632812 66.617188 11.789062 L 66.195312 12.769531 C 65.871094 12.636719 65.539062 12.523438 65.203125 12.433594 C 64.855469 12.339844 64.496094 12.292969 64.136719 12.292969 C 63.738281 12.269531 63.339844 12.355469 62.984375 12.539062 C 62.738281 12.667969 62.582031 12.925781 62.582031 13.203125 C 62.574219 13.398438 62.640625 13.585938 62.765625 13.734375 C 62.941406 13.914062 63.148438 14.054688 63.375 14.15625 C 63.660156 14.292969 64.039062 14.453125 64.515625 14.632812 C 64.933594 14.78125 65.34375 14.964844 65.734375 15.175781 C 66.042969 15.335938 66.304688 15.570312 66.503906 15.855469 C 66.691406 16.15625 66.78125 16.503906 66.769531 16.855469 Z M 66.769531 16.855469 "/>
<path style=" stroke:none;fill-rule:nonzero;fill:rgb(0%,0%,0%);fill-opacity:1;" d="M 71.601562 19.066406 C 70.984375 19.082031 70.371094 18.941406 69.820312 18.660156 C 69.296875 18.378906 68.871094 17.9375 68.609375 17.402344 C 68.292969 16.71875 68.140625 15.96875 68.167969 15.21875 C 68.136719 14.441406 68.292969 13.667969 68.625 12.964844 C 68.894531 12.417969 69.335938 11.972656 69.878906 11.691406 C 70.4375 11.414062 71.058594 11.273438 71.683594 11.285156 C 72.054688 11.285156 72.421875 11.324219 72.78125 11.402344 C 73.085938 11.460938 73.378906 11.558594 73.65625 11.691406 L 73.28125 12.710938 C 73.023438 12.617188 72.761719 12.539062 72.496094 12.472656 C 72.222656 12.402344 71.9375 12.363281 71.65625 12.363281 C 70.179688 12.363281 69.441406 13.308594 69.441406 15.203125 C 69.394531 15.9375 69.585938 16.664062 69.980469 17.28125 C 70.363281 17.773438 70.964844 18.042969 71.585938 18.003906 C 71.949219 18.007812 72.308594 17.964844 72.664062 17.878906 C 72.960938 17.800781 73.25 17.699219 73.53125 17.570312 L 73.53125 18.660156 C 73.265625 18.796875 72.988281 18.898438 72.699219 18.960938 C 72.335938 19.039062 71.96875 19.074219 71.601562 19.066406 Z M 71.601562 19.066406 "/>
<path style=" stroke:none;fill-rule:nonzero;fill:rgb(0%,0%,0%);fill-opacity:1;" d="M 78.152344 11.296875 C 78.878906 11.238281 79.601562 11.453125 80.179688 11.898438 C 80.664062 12.417969 80.902344 13.113281 80.839844 13.816406 L 80.839844 18.925781 L 79.945312 18.925781 L 79.707031 17.863281 L 79.648438 17.863281 C 79.367188 18.234375 79.015625 18.542969 78.613281 18.773438 C 78.148438 18.992188 77.640625 19.09375 77.128906 19.066406 C 76.519531 19.089844 75.917969 18.902344 75.433594 18.527344 C 74.957031 18.101562 74.710938 17.476562 74.761719 16.839844 C 74.734375 16.152344 75.070312 15.496094 75.644531 15.113281 C 76.472656 14.644531 77.410156 14.414062 78.359375 14.449219 L 79.636719 14.40625 L 79.636719 13.957031 C 79.6875 13.484375 79.539062 13.015625 79.230469 12.65625 C 78.90625 12.394531 78.496094 12.265625 78.082031 12.292969 C 77.703125 12.289062 77.324219 12.347656 76.960938 12.46875 C 76.621094 12.578125 76.289062 12.710938 75.96875 12.867188 L 75.589844 11.941406 C 75.957031 11.746094 76.347656 11.59375 76.75 11.488281 C 77.207031 11.359375 77.679688 11.296875 78.152344 11.296875 Z M 79.621094 15.261719 L 78.515625 15.300781 C 77.839844 15.273438 77.171875 15.429688 76.578125 15.75 C 76.222656 16.003906 76.019531 16.417969 76.039062 16.855469 C 76.007812 17.207031 76.152344 17.554688 76.421875 17.78125 C 76.710938 17.984375 77.058594 18.089844 77.410156 18.074219 C 77.980469 18.09375 78.539062 17.90625 78.984375 17.546875 C 79.4375 17.136719 79.671875 16.539062 79.621094 15.933594 Z M 79.621094 15.261719 "/>
</g>
</svg>
