<?xml version="1.0" encoding="UTF-8"?>
<svg xmlns="http://www.w3.org/2000/svg" xmlns:xlink="http://www.w3.org/1999/xlink" width="100" height="28" viewBox="0 0 100 28" version="1.1">
<defs>
<filter id="alpha" filterUnits="objectBoundingBox" x="0%" y="0%" width="100%" height="100%">
  <feColorMatrix type="matrix" in="SourceGraphic" values="0 0 0 0 1 0 0 0 0 1 0 0 0 0 1 0 0 0 1 0"/>
</filter>
<mask id="mask0">
  <g filter="url(#alpha)">
<rect x="0" y="0" width="100" height="28" style="fill:rgb(0%,0%,0%);fill-opacity:0.0509804;stroke:none;"/>
  </g>
</mask>
<clipPath id="clip1">
  <rect x="0" y="0" width="100" height="28"/>
</clipPath>
<g id="surface5" clip-path="url(#clip1)">
<path style=" stroke:none;fill-rule:nonzero;fill:rgb(0%,0%,0%);fill-opacity:1;" d="M 5 0 L 95 0 C 97.761719 0 100 2.238281 100 5 L 100 23 C 100 25.761719 97.761719 28 95 28 L 5 28 C 2.238281 28 0 25.761719 0 23 L 0 5 C 0 2.238281 2.238281 0 5 0 Z M 5 0 "/>
</g>
</defs>
<g id="surface1">
<use xlink:href="#surface5" mask="url(#mask0)"/>
<path style=" stroke:none;fill-rule:nonzero;fill:rgb(10.196078%,10.196078%,10.196078%);fill-opacity:1;" d="M 22 17 L 18 17 C 18 18.65625 16.65625 20 15 20 C 13.34375 20 12 18.65625 12 17 L 8 17 L 8 7 L 22 7 M 22 5 L 8 5 C 6.894531 5 6 5.894531 6 7 L 6 21 C 6 22.105469 6.894531 23 8 23 L 22 23 C 23.105469 23 24 22.105469 24 21 L 24 7 C 24 5.894531 23.105469 5 22 5 Z M 22 5 "/>
<path style=" stroke:none;fill-rule:nonzero;fill:rgb(10.196078%,10.196078%,10.196078%);fill-opacity:1;" d="M 31.359375 9.003906 C 32.328125 8.929688 33.296875 9.175781 34.109375 9.710938 C 34.730469 10.242188 35.058594 11.035156 35 11.847656 C 35.015625 12.308594 34.914062 12.765625 34.707031 13.175781 C 34.523438 13.515625 34.269531 13.804688 33.957031 14.03125 C 33.664062 14.238281 33.339844 14.40625 32.996094 14.519531 L 35.742188 19 L 34.269531 19 L 31.847656 14.871094 L 29.859375 14.871094 L 29.859375 19 L 28.601562 19 L 28.601562 9.003906 Z M 31.289062 10.097656 L 29.859375 10.097656 L 29.859375 13.804688 L 31.359375 13.804688 C 31.992188 13.859375 32.621094 13.6875 33.136719 13.324219 C 33.527344 12.957031 33.734375 12.4375 33.695312 11.902344 C 33.75 11.367188 33.527344 10.84375 33.109375 10.507812 C 32.558594 10.195312 31.921875 10.050781 31.289062 10.097656 Z M 31.289062 10.097656 "/>
<path style=" stroke:none;fill-rule:nonzero;fill:rgb(10.196078%,10.196078%,10.196078%);fill-opacity:1;" d="M 40.039062 11.355469 C 40.617188 11.339844 41.191406 11.488281 41.691406 11.777344 C 42.15625 12.054688 42.53125 12.46875 42.761719 12.960938 C 43.019531 13.519531 43.148438 14.128906 43.132812 14.746094 L 43.132812 15.488281 L 37.996094 15.488281 C 37.960938 16.191406 38.195312 16.882812 38.644531 17.425781 C 39.105469 17.886719 39.738281 18.128906 40.390625 18.089844 C 40.816406 18.09375 41.242188 18.050781 41.65625 17.957031 C 42.046875 17.859375 42.429688 17.730469 42.796875 17.574219 L 42.796875 18.648438 C 42.433594 18.8125 42.054688 18.9375 41.664062 19.019531 C 41.226562 19.105469 40.78125 19.144531 40.332031 19.140625 C 39.675781 19.15625 39.027344 19.003906 38.441406 18.707031 C 37.898438 18.414062 37.457031 17.964844 37.175781 17.417969 C 36.851562 16.761719 36.695312 16.035156 36.722656 15.304688 C 36.703125 14.578125 36.84375 13.855469 37.132812 13.191406 C 37.382812 12.632812 37.785156 12.160156 38.296875 11.832031 C 38.820312 11.507812 39.425781 11.34375 40.039062 11.355469 Z M 40.027344 12.363281 C 39.5 12.335938 38.988281 12.546875 38.632812 12.929688 C 38.265625 13.375 38.050781 13.929688 38.023438 14.507812 L 41.84375 14.507812 C 41.859375 13.957031 41.703125 13.414062 41.398438 12.960938 C 41.066406 12.542969 40.554688 12.320312 40.027344 12.363281 Z M 40.027344 12.363281 "/>
<path style=" stroke:none;fill-rule:nonzero;fill:rgb(10.196078%,10.196078%,10.196078%);fill-opacity:1;" d="M 48.046875 19.140625 C 47.429688 19.152344 46.820312 19.011719 46.269531 18.734375 C 45.742188 18.449219 45.320312 18.011719 45.058594 17.472656 C 44.738281 16.792969 44.589844 16.042969 44.617188 15.289062 C 44.585938 14.511719 44.742188 13.738281 45.074219 13.035156 C 45.34375 12.488281 45.78125 12.042969 46.324219 11.761719 C 46.886719 11.484375 47.503906 11.34375 48.132812 11.355469 C 48.5 11.355469 48.871094 11.394531 49.230469 11.476562 C 49.53125 11.535156 49.824219 11.632812 50.105469 11.761719 L 49.726562 12.785156 C 49.46875 12.691406 49.207031 12.609375 48.941406 12.546875 C 48.667969 12.472656 48.386719 12.4375 48.101562 12.433594 C 46.628906 12.433594 45.890625 13.382812 45.890625 15.273438 C 45.84375 16.007812 46.03125 16.738281 46.429688 17.355469 C 46.8125 17.847656 47.414062 18.117188 48.03125 18.074219 C 48.394531 18.082031 48.757812 18.039062 49.109375 17.949219 C 49.410156 17.871094 49.699219 17.769531 49.980469 17.640625 L 49.980469 18.734375 C 49.714844 18.867188 49.433594 18.96875 49.144531 19.035156 C 48.785156 19.109375 48.417969 19.148438 48.046875 19.140625 Z M 48.046875 19.140625 "/>
<path style=" stroke:none;fill-rule:nonzero;fill:rgb(10.196078%,10.196078%,10.196078%);fill-opacity:1;" d="M 54.65625 11.355469 C 55.234375 11.339844 55.804688 11.488281 56.308594 11.777344 C 56.773438 12.054688 57.144531 12.46875 57.378906 12.960938 C 57.636719 13.519531 57.761719 14.128906 57.75 14.746094 L 57.75 15.488281 L 52.609375 15.488281 C 52.578125 16.191406 52.8125 16.882812 53.261719 17.425781 C 53.722656 17.886719 54.355469 18.128906 55.003906 18.089844 C 55.429688 18.09375 55.855469 18.050781 56.273438 17.957031 C 56.664062 17.859375 57.042969 17.730469 57.414062 17.574219 L 57.414062 18.648438 C 57.046875 18.8125 56.667969 18.9375 56.277344 19.019531 C 55.839844 19.105469 55.394531 19.144531 54.949219 19.140625 C 54.292969 19.15625 53.644531 19.003906 53.058594 18.707031 C 52.515625 18.414062 52.074219 17.964844 51.792969 17.417969 C 51.46875 16.761719 51.3125 16.035156 51.335938 15.304688 C 51.316406 14.578125 51.457031 13.855469 51.75 13.191406 C 51.996094 12.632812 52.402344 12.164062 52.910156 11.832031 C 53.433594 11.507812 54.039062 11.34375 54.65625 11.355469 Z M 54.640625 12.363281 C 54.117188 12.339844 53.605469 12.546875 53.246094 12.929688 C 52.878906 13.375 52.664062 13.929688 52.640625 14.507812 L 56.460938 14.507812 C 56.476562 13.957031 56.320312 13.414062 56.011719 12.960938 C 55.683594 12.542969 55.167969 12.320312 54.640625 12.363281 Z M 54.640625 12.363281 "/>
<path style=" stroke:none;fill-rule:nonzero;fill:rgb(10.196078%,10.196078%,10.196078%);fill-opacity:1;" d="M 60.882812 8.359375 L 60.882812 10.949219 C 60.882812 11.265625 60.878906 11.5625 60.863281 11.839844 C 60.847656 12.113281 60.832031 12.332031 60.8125 12.488281 L 60.882812 12.488281 C 61.113281 12.160156 61.414062 11.886719 61.765625 11.691406 C 62.210938 11.460938 62.707031 11.347656 63.207031 11.371094 C 64.066406 11.335938 64.890625 11.695312 65.457031 12.34375 C 66.078125 13.175781 66.378906 14.210938 66.300781 15.246094 C 66.378906 16.289062 66.074219 17.324219 65.449219 18.160156 C 64.886719 18.808594 64.066406 19.167969 63.207031 19.140625 C 62.707031 19.160156 62.210938 19.050781 61.765625 18.816406 C 61.421875 18.628906 61.121094 18.363281 60.882812 18.046875 L 60.785156 18.046875 L 60.535156 19 L 59.652344 19 L 59.652344 8.359375 Z M 63 12.390625 C 62.363281 12.316406 61.734375 12.578125 61.339844 13.078125 C 60.988281 13.730469 60.832031 14.46875 60.882812 15.207031 L 60.882812 15.261719 C 60.839844 15.996094 60.996094 16.730469 61.339844 17.382812 C 61.726562 17.914062 62.371094 18.195312 63.027344 18.117188 C 63.625 18.15625 64.195312 17.871094 64.53125 17.375 C 64.902344 16.726562 65.074219 15.980469 65.027344 15.234375 C 65.027344 13.339844 64.351562 12.390625 63 12.390625 Z M 63 12.390625 "/>
<path style=" stroke:none;fill-rule:nonzero;fill:rgb(10.196078%,10.196078%,10.196078%);fill-opacity:1;" d="M 68.894531 8.683594 C 69.078125 8.679688 69.253906 8.75 69.390625 8.871094 C 69.546875 9.027344 69.625 9.246094 69.605469 9.464844 C 69.625 9.6875 69.546875 9.90625 69.390625 10.0625 C 69.253906 10.183594 69.078125 10.25 68.894531 10.25 C 68.703125 10.253906 68.515625 10.1875 68.375 10.0625 C 68.222656 9.902344 68.144531 9.683594 68.164062 9.464844 C 68.144531 9.246094 68.222656 9.03125 68.375 8.871094 C 68.515625 8.746094 68.703125 8.675781 68.894531 8.683594 Z M 69.496094 11.496094 L 69.496094 19 L 68.261719 19 L 68.261719 11.496094 Z M 69.496094 11.496094 "/>
<path style=" stroke:none;fill-rule:nonzero;fill:rgb(10.196078%,10.196078%,10.196078%);fill-opacity:1;" d="M 74.535156 19.140625 C 73.679688 19.175781 72.855469 18.816406 72.296875 18.167969 C 71.675781 17.332031 71.378906 16.300781 71.453125 15.261719 C 71.378906 14.21875 71.679688 13.183594 72.300781 12.34375 C 73.246094 11.339844 74.734375 11.070312 75.96875 11.679688 C 76.320312 11.875 76.628906 12.144531 76.875 12.460938 L 76.957031 12.460938 C 76.9375 12.339844 76.917969 12.160156 76.902344 11.921875 C 76.882812 11.683594 76.875 11.496094 76.875 11.355469 L 76.875 8.359375 L 78.105469 8.359375 L 78.105469 19 L 77.109375 19 L 76.929688 17.992188 L 76.875 17.992188 C 76.632812 18.324219 76.328125 18.597656 75.976562 18.804688 C 75.535156 19.042969 75.035156 19.160156 74.535156 19.140625 Z M 74.730469 18.117188 C 75.359375 18.183594 75.984375 17.941406 76.402344 17.46875 C 76.769531 16.878906 76.9375 16.191406 76.886719 15.5 L 76.886719 15.277344 C 76.929688 14.53125 76.769531 13.789062 76.425781 13.128906 C 76.035156 12.585938 75.378906 12.300781 74.71875 12.378906 C 74.113281 12.347656 73.539062 12.652344 73.226562 13.167969 C 72.863281 13.816406 72.691406 14.550781 72.730469 15.289062 C 72.6875 16.019531 72.859375 16.746094 73.226562 17.375 C 73.558594 17.871094 74.132812 18.15625 74.730469 18.117188 Z M 74.730469 18.117188 "/>
<path style=" stroke:none;fill-rule:nonzero;fill:rgb(10.196078%,10.196078%,10.196078%);fill-opacity:1;" d="M 87.007812 15.234375 C 87.074219 16.28125 86.738281 17.3125 86.0625 18.117188 C 85.398438 18.8125 84.46875 19.1875 83.507812 19.140625 C 82.886719 19.152344 82.277344 18.992188 81.738281 18.683594 C 81.207031 18.371094 80.78125 17.910156 80.511719 17.355469 C 80.195312 16.695312 80.042969 15.96875 80.0625 15.234375 C 79.996094 14.195312 80.328125 13.167969 80.996094 12.363281 C 81.660156 11.671875 82.59375 11.304688 83.550781 11.355469 C 84.175781 11.34375 84.796875 11.5 85.34375 11.8125 C 85.871094 12.121094 86.296875 12.578125 86.566406 13.128906 C 86.878906 13.785156 87.03125 14.507812 87.007812 15.234375 Z M 81.339844 15.234375 C 81.300781 15.972656 81.480469 16.707031 81.863281 17.339844 C 82.277344 17.832031 82.890625 18.117188 83.53125 18.117188 C 84.175781 18.117188 84.789062 17.832031 85.203125 17.339844 C 85.589844 16.707031 85.773438 15.972656 85.734375 15.234375 C 85.777344 14.5 85.589844 13.773438 85.203125 13.148438 C 84.808594 12.625 84.175781 12.339844 83.523438 12.390625 C 82.871094 12.335938 82.242188 12.625 81.855469 13.148438 C 81.476562 13.777344 81.296875 14.503906 81.339844 15.234375 Z M 81.339844 15.234375 "/>
<path style=" stroke:none;fill-rule:nonzero;fill:rgb(10.196078%,10.196078%,10.196078%);fill-opacity:1;" d="M 93.839844 16.925781 C 93.875 17.582031 93.570312 18.210938 93.027344 18.582031 C 92.375 18.984375 91.613281 19.179688 90.84375 19.140625 C 90.390625 19.148438 89.9375 19.105469 89.492188 19.011719 C 89.144531 18.941406 88.808594 18.824219 88.492188 18.664062 L 88.492188 17.542969 C 88.839844 17.710938 89.203125 17.851562 89.578125 17.957031 C 89.996094 18.082031 90.433594 18.144531 90.871094 18.144531 C 91.34375 18.183594 91.816406 18.078125 92.230469 17.84375 C 92.5 17.664062 92.65625 17.363281 92.648438 17.039062 C 92.652344 16.859375 92.597656 16.683594 92.496094 16.535156 C 92.347656 16.347656 92.15625 16.195312 91.941406 16.085938 C 91.574219 15.894531 91.195312 15.726562 90.800781 15.582031 C 90.375 15.421875 89.957031 15.234375 89.554688 15.023438 C 89.242188 14.863281 88.96875 14.632812 88.757812 14.351562 C 88.5625 14.054688 88.460938 13.699219 88.476562 13.34375 C 88.457031 12.75 88.753906 12.191406 89.253906 11.875 C 89.867188 11.503906 90.578125 11.324219 91.292969 11.355469 C 91.722656 11.351562 92.152344 11.398438 92.574219 11.496094 C 92.953125 11.582031 93.328125 11.707031 93.6875 11.859375 L 93.265625 12.839844 C 92.941406 12.707031 92.609375 12.59375 92.273438 12.503906 C 91.925781 12.410156 91.566406 12.363281 91.207031 12.363281 C 90.808594 12.339844 90.410156 12.425781 90.054688 12.609375 C 89.808594 12.738281 89.652344 12.996094 89.652344 13.273438 C 89.644531 13.46875 89.710938 13.65625 89.835938 13.804688 C 90.011719 13.984375 90.21875 14.125 90.445312 14.226562 C 90.730469 14.367188 91.109375 14.523438 91.585938 14.703125 C 92.003906 14.851562 92.410156 15.035156 92.804688 15.246094 C 93.113281 15.410156 93.375 15.640625 93.574219 15.925781 C 93.761719 16.226562 93.851562 16.574219 93.839844 16.925781 Z M 93.839844 16.925781 "/>
</g>
</svg>
