<?xml version="1.0" encoding="UTF-8"?>
<svg xmlns="http://www.w3.org/2000/svg" xmlns:xlink="http://www.w3.org/1999/xlink" width="100px" height="28px" viewBox="0 0 100 28" version="1.1">
<defs>
<filter id="alpha" filterUnits="objectBoundingBox" x="0%" y="0%" width="100%" height="100%">
  <feColorMatrix type="matrix" in="SourceGraphic" values="0 0 0 0 1 0 0 0 0 1 0 0 0 0 1 0 0 0 1 0"/>
</filter>
<mask id="mask0">
  <g filter="url(#alpha)">
<rect x="0" y="0" width="100" height="28" style="fill:rgb(0%,0%,0%);fill-opacity:0.0509804;stroke:none;"/>
  </g>
</mask>
<clipPath id="clip1">
  <rect x="0" y="0" width="100" height="28"/>
</clipPath>
<g id="surface5" clip-path="url(#clip1)">
<path style=" stroke:none;fill-rule:nonzero;fill:rgb(0%,0%,0%);fill-opacity:1;" d="M 5 0 L 95 0 C 97.761719 0 100 2.238281 100 5 L 100 23 C 100 25.761719 97.761719 28 95 28 L 5 28 C 2.238281 28 0 25.761719 0 23 L 0 5 C 0 2.238281 2.238281 0 5 0 Z M 5 0 "/>
</g>
</defs>
<g id="surface1">
<use xlink:href="#surface5" mask="url(#mask0)"/>
<path style=" stroke:none;fill-rule:nonzero;fill:rgb(0%,0%,0%);fill-opacity:1;" d="M 36.628906 8.933594 C 37.597656 8.855469 38.566406 9.105469 39.378906 9.640625 C 40 10.167969 40.328125 10.960938 40.269531 11.773438 C 40.285156 12.234375 40.183594 12.691406 39.972656 13.105469 C 39.792969 13.441406 39.535156 13.734375 39.226562 13.957031 C 38.933594 14.167969 38.609375 14.332031 38.265625 14.449219 L 41.011719 18.925781 L 39.539062 18.925781 L 37.117188 14.796875 L 35.128906 14.796875 L 35.128906 18.925781 L 33.871094 18.925781 L 33.871094 8.933594 Z M 36.558594 10.023438 L 35.128906 10.023438 L 35.128906 13.734375 L 36.628906 13.734375 C 37.257812 13.789062 37.890625 13.617188 38.40625 13.25 C 38.796875 12.886719 39.003906 12.363281 38.964844 11.828125 C 39.019531 11.296875 38.796875 10.773438 38.378906 10.4375 C 37.828125 10.121094 37.191406 9.976562 36.558594 10.023438 Z M 36.558594 10.023438 "/>
<path style=" stroke:none;fill-rule:nonzero;fill:rgb(0%,0%,0%);fill-opacity:1;" d="M 45.308594 11.285156 C 45.886719 11.269531 46.457031 11.414062 46.960938 11.703125 C 47.425781 11.984375 47.800781 12.394531 48.03125 12.886719 C 48.289062 13.445312 48.417969 14.054688 48.402344 14.671875 L 48.402344 15.414062 L 43.265625 15.414062 C 43.230469 16.117188 43.464844 16.8125 43.914062 17.355469 C 44.375 17.8125 45.007812 18.054688 45.660156 18.019531 C 46.085938 18.023438 46.511719 17.980469 46.925781 17.886719 C 47.316406 17.789062 47.699219 17.660156 48.066406 17.5 L 48.066406 18.578125 C 47.703125 18.742188 47.320312 18.863281 46.933594 18.949219 C 46.496094 19.035156 46.046875 19.074219 45.601562 19.066406 C 44.945312 19.082031 44.296875 18.933594 43.710938 18.632812 C 43.167969 18.34375 42.726562 17.894531 42.445312 17.34375 C 42.121094 16.6875 41.964844 15.964844 41.992188 15.230469 C 41.972656 14.503906 42.113281 13.785156 42.402344 13.117188 C 42.652344 12.5625 43.054688 12.089844 43.566406 11.761719 C 44.089844 11.4375 44.695312 11.269531 45.308594 11.285156 Z M 45.292969 12.292969 C 44.769531 12.265625 44.257812 12.472656 43.902344 12.859375 C 43.535156 13.304688 43.320312 13.855469 43.292969 14.433594 L 47.113281 14.433594 C 47.128906 13.882812 46.972656 13.34375 46.667969 12.886719 C 46.335938 12.472656 45.824219 12.25 45.292969 12.292969 Z M 45.292969 12.292969 "/>
<path style=" stroke:none;fill-rule:nonzero;fill:rgb(0%,0%,0%);fill-opacity:1;" d="M 58.539062 11.285156 C 59.238281 11.230469 59.925781 11.46875 60.441406 11.941406 C 60.914062 12.535156 61.140625 13.289062 61.070312 14.042969 L 61.070312 18.929688 L 59.855469 18.929688 L 59.855469 14.097656 C 59.855469 12.914062 59.34375 12.320312 58.328125 12.320312 C 57.734375 12.261719 57.152344 12.496094 56.765625 12.949219 C 56.417969 13.496094 56.253906 14.136719 56.296875 14.785156 L 56.296875 18.925781 L 55.078125 18.925781 L 55.078125 14.097656 C 55.078125 12.914062 54.566406 12.320312 53.539062 12.320312 C 52.929688 12.25 52.328125 12.519531 51.972656 13.019531 C 51.648438 13.640625 51.496094 14.335938 51.539062 15.035156 L 51.539062 18.925781 L 50.304688 18.925781 L 50.304688 11.425781 L 51.300781 11.425781 L 51.484375 12.445312 L 51.550781 12.445312 C 51.773438 12.066406 52.101562 11.761719 52.496094 11.570312 C 52.890625 11.378906 53.324219 11.28125 53.765625 11.285156 C 54.722656 11.160156 55.652344 11.667969 56.0625 12.542969 L 56.128906 12.542969 C 56.367188 12.128906 56.722656 11.796875 57.152344 11.589844 C 57.585938 11.386719 58.058594 11.28125 58.539062 11.285156 Z M 58.539062 11.285156 "/>
<path style=" stroke:none;fill-rule:nonzero;fill:rgb(0%,0%,0%);fill-opacity:1;" d="M 69.921875 15.160156 C 69.988281 16.210938 69.648438 17.242188 68.976562 18.046875 C 68.3125 18.742188 67.378906 19.113281 66.421875 19.066406 C 65.800781 19.078125 65.1875 18.921875 64.648438 18.613281 C 64.121094 18.296875 63.695312 17.835938 63.425781 17.28125 C 63.109375 16.621094 62.953125 15.894531 62.976562 15.160156 C 62.90625 14.121094 63.242188 13.09375 63.90625 12.292969 C 64.574219 11.601562 65.503906 11.234375 66.460938 11.285156 C 67.089844 11.273438 67.707031 11.429688 68.253906 11.738281 C 68.78125 12.050781 69.207031 12.507812 69.480469 13.054688 C 69.792969 13.710938 69.941406 14.433594 69.921875 15.160156 Z M 64.25 15.160156 C 64.210938 15.902344 64.394531 16.636719 64.777344 17.269531 C 65.191406 17.761719 65.800781 18.046875 66.445312 18.046875 C 67.089844 18.046875 67.699219 17.761719 68.113281 17.269531 C 68.5 16.636719 68.683594 15.902344 68.648438 15.160156 C 68.6875 14.429688 68.5 13.699219 68.113281 13.074219 C 67.71875 12.554688 67.085938 12.269531 66.433594 12.320312 C 65.785156 12.265625 65.152344 12.550781 64.769531 13.074219 C 64.390625 13.703125 64.210938 14.429688 64.25 15.160156 Z M 64.25 15.160156 "/>
<path style=" stroke:none;fill-rule:nonzero;fill:rgb(0%,0%,0%);fill-opacity:1;" d="M 73.238281 18.925781 L 70.394531 11.425781 L 71.710938 11.425781 L 73.308594 15.847656 C 73.382812 16.054688 73.460938 16.28125 73.546875 16.535156 C 73.628906 16.785156 73.703125 17.027344 73.769531 17.261719 C 73.835938 17.496094 73.882812 17.6875 73.910156 17.835938 L 73.96875 17.835938 C 74.007812 17.640625 74.058594 17.445312 74.121094 17.253906 C 74.195312 17.015625 74.273438 16.773438 74.359375 16.527344 C 74.441406 16.28125 74.523438 16.054688 74.597656 15.847656 L 76.191406 11.425781 L 77.507812 11.425781 L 74.652344 18.925781 Z M 73.238281 18.925781 "/>
<path style=" stroke:none;fill-rule:nonzero;fill:rgb(0%,0%,0%);fill-opacity:1;" d="M 81.597656 11.285156 C 82.175781 11.269531 82.746094 11.414062 83.25 11.703125 C 83.714844 11.984375 84.085938 12.394531 84.320312 12.886719 C 84.578125 13.445312 84.703125 14.054688 84.691406 14.671875 L 84.691406 15.414062 L 79.550781 15.414062 C 79.519531 16.117188 79.753906 16.8125 80.203125 17.355469 C 80.664062 17.816406 81.296875 18.054688 81.945312 18.019531 C 82.371094 18.023438 82.796875 17.980469 83.214844 17.886719 C 83.605469 17.789062 83.984375 17.660156 84.355469 17.5 L 84.355469 18.578125 C 83.988281 18.742188 83.609375 18.863281 83.21875 18.949219 C 82.78125 19.035156 82.335938 19.074219 81.890625 19.066406 C 81.234375 19.082031 80.585938 18.933594 80 18.632812 C 79.457031 18.34375 79.015625 17.894531 78.734375 17.34375 C 78.410156 16.6875 78.253906 15.964844 78.277344 15.230469 C 78.257812 14.503906 78.398438 13.785156 78.691406 13.117188 C 78.9375 12.5625 79.34375 12.089844 79.851562 11.761719 C 80.375 11.4375 80.980469 11.269531 81.597656 11.285156 Z M 81.582031 12.292969 C 81.058594 12.265625 80.546875 12.472656 80.1875 12.859375 C 79.820312 13.304688 79.609375 13.855469 79.582031 14.433594 L 83.402344 14.433594 C 83.417969 13.882812 83.261719 13.34375 82.953125 12.886719 C 82.625 12.472656 82.109375 12.25 81.582031 12.292969 Z M 81.582031 12.292969 "/>
<path style=" stroke:none;fill-rule:nonzero;fill:rgb(0%,0%,0%);fill-opacity:1;" d="M 90.09375 11.285156 C 90.234375 11.285156 90.382812 11.289062 90.542969 11.304688 C 90.6875 11.316406 90.832031 11.339844 90.976562 11.367188 L 90.820312 12.503906 C 90.6875 12.472656 90.550781 12.449219 90.414062 12.433594 C 90.28125 12.414062 90.144531 12.40625 90.011719 12.40625 C 89.628906 12.402344 89.253906 12.511719 88.933594 12.71875 C 88.589844 12.9375 88.3125 13.242188 88.125 13.601562 C 87.917969 14.011719 87.816406 14.464844 87.824219 14.925781 L 87.824219 18.929688 L 86.59375 18.929688 L 86.59375 11.425781 L 87.601562 11.425781 L 87.742188 12.796875 L 87.796875 12.796875 C 88.035156 12.382812 88.351562 12.019531 88.730469 11.730469 C 89.121094 11.433594 89.601562 11.273438 90.09375 11.285156 Z M 90.09375 11.285156 "/>
<path style=" stroke:none;fill-rule:nonzero;fill:rgb(10.196078%,10.196078%,10.196078%);fill-opacity:1;" d="M 27.433594 19.730469 L 29.5625 21.851562 L 28.144531 23.269531 L 26.023438 21.140625 L 23.902344 23.269531 L 22.492188 21.851562 L 24.613281 19.730469 L 22.492188 17.609375 L 23.902344 16.199219 L 26.023438 18.320312 L 28.144531 16.199219 L 29.5625 17.609375 L 27.433594 19.730469 M 20 20 C 20.003906 20.335938 20.035156 20.667969 20.089844 21 L 11 21 C 9.894531 21 9 20.105469 9 19 L 9 7 C 9 6.46875 9.207031 5.960938 9.582031 5.582031 C 9.960938 5.207031 10.46875 5 11 5 L 27 5 C 28.105469 5 29 5.894531 29 7 L 29 14.808594 C 27.144531 13.734375 24.855469 13.730469 23 14.800781 C 21.140625 15.871094 19.996094 17.855469 20 20 M 27.023438 8.730469 L 27.023438 6.730469 L 19.023438 11.730469 L 11.023438 6.730469 L 11.023438 8.730469 L 19.023438 13.730469 Z M 27.023438 8.730469 "/>
</g>
</svg>
