<?xml version="1.0" encoding="UTF-8"?>
<svg xmlns="http://www.w3.org/2000/svg" xmlns:xlink="http://www.w3.org/1999/xlink" width="24px" height="24px" viewBox="0 0 24 24" version="1.1">
<g id="surface1">
<path style=" stroke:none;fill-rule:nonzero;fill:rgb(77.647059%,15.686275%,15.686275%);fill-opacity:1;" d="M 6 19 C 6 20.101562 6.898438 21 8 21 L 16 21 C 17.101562 21 18 20.101562 18 19 L 18 7 L 6 7 L 6 19 M 8.5 11.898438 L 9.898438 10.5 L 12 12.601562 L 14.101562 10.5 L 15.5 11.898438 L 13.398438 14 L 15.5 16.101562 L 14.101562 17.5 L 12 15.398438 L 9.898438 17.5 L 8.5 16.101562 L 10.601562 14 L 8.5 11.898438 M 15.5 4 L 14.5 3 L 9.5 3 L 8.5 4 L 5 4 L 5 6 L 19 6 L 19 4 Z M 15.5 4 "/>
</g>
</svg>
