<?xml version="1.0" encoding="UTF-8"?>
<svg xmlns="http://www.w3.org/2000/svg" xmlns:xlink="http://www.w3.org/1999/xlink" width="16px" height="16px" viewBox="0 0 16 16" version="1.1">
<g id="surface1">
<path style=" stroke:none;fill-rule:nonzero;fill:rgb(0%,0%,0%);fill-opacity:1;" d="M 13 1 L 9 4.191406 L 9 12 L 13 8.808594 L 13 1 M 3.996094 3.101562 C 2.589844 3.039062 1.195312 3.402344 0 4.148438 L 0 14.410156 C 0.015625 14.601562 0.171875 14.753906 0.363281 14.761719 C 0.433594 14.761719 0.472656 14.714844 0.546875 14.714844 C 1.636719 14.238281 2.808594 13.976562 3.996094 13.949219 C 5.40625 13.886719 6.804688 14.253906 8 15 C 9.234375 14.34375 10.605469 13.984375 12.003906 13.949219 C 13.195312 13.925781 14.378906 14.179688 15.453125 14.691406 C 15.511719 14.714844 15.574219 14.722656 15.636719 14.710938 C 15.828125 14.703125 15.984375 14.550781 16 14.359375 L 16 4.148438 C 15.566406 3.835938 15 3.453125 15 3.453125 L 15 12.886719 C 14.117188 12.628906 13.199219 12.503906 12.28125 12.511719 C 10.785156 12.550781 9.320312 12.933594 8 13.632812 L 8 4.148438 C 6.800781 3.402344 5.40625 3.039062 3.996094 3.101562 Z M 3.996094 3.101562 "/>
</g>
</svg>
