<?xml version="1.0" encoding="UTF-8"?>
<svg xmlns="http://www.w3.org/2000/svg" xmlns:xlink="http://www.w3.org/1999/xlink" width="12px" height="12px" viewBox="0 0 12 12" version="1.1">
<g id="surface1">
<path style=" stroke:none;fill-rule:nonzero;fill:rgb(100%,100%,100%);fill-opacity:1;" d="M 1.5 3.5 L 2.5 3.5 L 2.5 4.5 L 1.5 4.5 Z M 1.5 3.5 "/>
<path style=" stroke:none;fill-rule:nonzero;fill:rgb(0%,0%,0%);fill-opacity:1;" d="M 3 3 L 1 3 L 1 5 L 3 5 Z M 3 3 "/>
<path style=" stroke:none;fill-rule:nonzero;fill:rgb(100%,100%,100%);fill-opacity:1;" d="M 9.5 3.5 L 10.5 3.5 L 10.5 4.5 L 9.5 4.5 Z M 9.5 3.5 "/>
<path style=" stroke:none;fill-rule:nonzero;fill:rgb(0%,0%,0%);fill-opacity:1;" d="M 11 3 L 9 3 L 9 5 L 11 5 Z M 11 3 "/>
<path style=" stroke:none;fill-rule:nonzero;fill:rgb(100%,100%,100%);fill-opacity:1;" d="M 5.5 3.5 L 6.5 3.5 L 6.5 4.5 L 5.5 4.5 Z M 5.5 3.5 "/>
<path style=" stroke:none;fill-rule:nonzero;fill:rgb(0%,0%,0%);fill-opacity:1;" d="M 7 3 L 5 3 L 5 5 L 7 5 Z M 7 3 "/>
<path style=" stroke:none;fill-rule:nonzero;fill:rgb(100%,100%,100%);fill-opacity:1;" d="M 1.5 7.5 L 2.5 7.5 L 2.5 8.5 L 1.5 8.5 Z M 1.5 7.5 "/>
<path style=" stroke:none;fill-rule:nonzero;fill:rgb(0%,0%,0%);fill-opacity:1;" d="M 3 7 L 1 7 L 1 9 L 3 9 Z M 3 7 "/>
<path style=" stroke:none;fill-rule:nonzero;fill:rgb(100%,100%,100%);fill-opacity:1;" d="M 5.5 7.5 L 6.5 7.5 L 6.5 8.5 L 5.5 8.5 Z M 5.5 7.5 "/>
<path style=" stroke:none;fill-rule:nonzero;fill:rgb(0%,0%,0%);fill-opacity:1;" d="M 7 7 L 5 7 L 5 9 L 7 9 Z M 7 7 "/>
<path style=" stroke:none;fill-rule:nonzero;fill:rgb(100%,100%,100%);fill-opacity:1;" d="M 9.5 7.5 L 10.5 7.5 L 10.5 8.5 L 9.5 8.5 Z M 9.5 7.5 "/>
<path style=" stroke:none;fill-rule:nonzero;fill:rgb(0%,0%,0%);fill-opacity:1;" d="M 11 7 L 9 7 L 9 9 L 11 9 Z M 11 7 "/>
</g>
</svg>
