<?xml version="1.0" encoding="UTF-8"?>
<svg xmlns="http://www.w3.org/2000/svg" xmlns:xlink="http://www.w3.org/1999/xlink" width="16px" height="16px" viewBox="0 0 16 16" version="1.1">
<g id="surface1">
<path style=" stroke:none;fill-rule:nonzero;fill:rgb(0%,0%,0%);fill-opacity:1;" d="M 14.667969 3.332031 L 14.667969 4.667969 L 11.332031 4.667969 L 9.019531 8 L 10.667969 8 L 10.667969 9.332031 L 9.640625 9.332031 L 12.113281 14.667969 L 10.648438 14.667969 L 10.027344 13.332031 L 4.253906 13.332031 L 3.566406 14.667969 L 2.066406 14.667969 L 4.820312 9.332031 L 4.667969 9.332031 C 4.367188 9.332031 4.113281 9.132812 4.027344 8.867188 L 1.914062 2.558594 L 2.546875 2.332031 C 2.894531 2.226562 3.273438 2.421875 3.386719 2.765625 L 5.148438 8 L 8.066406 8 L 10.378906 4.667969 L 8 4.667969 L 8 3.332031 L 14.667969 3.332031 M 6.332031 9.332031 L 4.945312 12 L 9.40625 12 L 8.171875 9.332031 Z M 6.332031 9.332031 "/>
</g>
</svg>
