<?xml version="1.0" encoding="UTF-8"?>
<svg xmlns="http://www.w3.org/2000/svg" xmlns:xlink="http://www.w3.org/1999/xlink" width="24" height="24" viewBox="0 0 24 24" version="1.1">
<g id="surface1">
<path style=" stroke:none;fill-rule:nonzero;fill:rgb(0%,0%,0%);fill-opacity:1;" d="M 12 12.800781 C 13.601562 12.800781 15.101562 13.199219 16.199219 13.699219 C 17.300781 14.199219 18 15.300781 18 16.398438 L 18 18 L 6 18 L 6 16.398438 C 6 15.199219 6.699219 14.101562 7.800781 13.699219 C 8.898438 13.101562 10.398438 12.800781 12 12.800781 Z M 4 13 C 5.101562 13 6 12.101562 6 11 C 6 9.898438 5.101562 9 4 9 C 2.898438 9 2 9.898438 2 11 C 2 12.101562 2.898438 13 4 13 Z M 5.101562 14.101562 C 4.800781 14 4.398438 14 4 14 C 3 14 2.101562 14.199219 1.199219 14.601562 C 0.5 14.898438 0 15.601562 0 16.5 L 0 18 L 4.5 18 L 4.5 16.398438 C 4.5 15.601562 4.699219 14.800781 5.101562 14.101562 Z M 20 13 C 21.101562 13 22 12.101562 22 11 C 22 9.898438 21.101562 9 20 9 C 18.898438 9 18 9.898438 18 11 C 18 12.101562 18.898438 13 20 13 Z M 24 16.398438 C 24 15.601562 23.5 14.898438 22.800781 14.5 C 21.898438 14.199219 21 14 20 14 C 19.601562 14 19.199219 14 18.898438 14.101562 C 19.300781 14.800781 19.5 15.601562 19.5 16.398438 L 19.5 18 L 24 18 Z M 12 6 C 13.699219 6 15 7.300781 15 9 C 15 10.699219 13.699219 12 12 12 C 10.300781 12 9 10.699219 9 9 C 9 7.300781 10.300781 6 12 6 Z M 12 6 "/>
<path style=" stroke:none;fill-rule:nonzero;fill:rgb(90.196078%,20%,16.470588%);fill-opacity:1;" d="M 23 17.5 C 23 20.539062 20.539062 23 17.5 23 C 14.460938 23 12 20.539062 12 17.5 C 12 14.460938 14.460938 12 17.5 12 C 20.539062 12 23 14.460938 23 17.5 Z M 23 17.5 "/>
<path style=" stroke:none;fill-rule:nonzero;fill:rgb(100%,100%,100%);fill-opacity:1;" d="M 18 19 L 17 19 L 17 14 L 18 14 Z M 18 19 "/>
<path style=" stroke:none;fill-rule:nonzero;fill:rgb(100%,100%,100%);fill-opacity:1;" d="M 18 21 L 17 21 L 17 20 L 18 20 Z M 18 21 "/>
</g>
</svg>
